<?xml version="1.0" encoding="UTF-8"?>
<svg id="Layer_1" xmlns="http://www.w3.org/2000/svg" width="879.9" height="540" xmlns:xlink="http://www.w3.org/1999/xlink" version="1.1" viewBox="0 0 879.9 540">
  <!-- Generator: Adobe Illustrator 29.0.1, SVG Export Plug-In . SVG Version: 2.1.0 Build 192)  -->
  <defs>
    <style>
      .st0 {
        fill: none;
      }

      .st1 {
        fill: #231f20;
      }

      .st2 {
        stroke: #fff;
        stroke-linecap: round;
        stroke-linejoin: round;
        stroke-width: .4px;
      }

      .st2, .st3 {
        fill: #e4ea8f;
      }

      .st4 {
        fill: #3d1c4e;
      }

      .st5 {
        fill: #d7e37e;
      }

      .st6, .st7 {
        isolation: isolate;
      }

      .st8 {
        fill: #c0d730;
      }

      .st9 {
        fill: #14130f;
      }

      .st10 {
        mix-blend-mode: overlay;
        opacity: .3;
      }

      .st7 {
        fill: #eaefa8;
        mix-blend-mode: screen;
      }

      .st11 {
        clip-path: url(#clippath);
      }
    </style>
    <clipPath id="clippath">
      <rect class="st0" x="-25.4" width="960" height="540"/>
    </clipPath>
  </defs>
  <g class="st6">
    <g id="Layer_3">
      <g class="st11">
        <g>
          <rect class="st4" x="-112.7" y="-19.6" width="1130.5" height="753.6"/>
          <polygon class="st9" points="185.7 434.6 175.9 433.4 177.9 422.6 167.9 422.9 166.6 432.4 154.5 431 152.3 434.8 165.9 437.8 161.1 473.6 168.6 475.2 174.8 439.7 184.2 441.8 185.7 434.6"/>
          <polygon class="st9" points="605.8 447.8 596 446.7 597.9 435.9 587.9 436.2 586.7 445.6 574.6 444.3 572.4 448.1 585.9 451 581.2 486.9 588.6 488.5 594.9 453 604.2 455 605.8 447.8"/>
          <path class="st9" d="M271.5,437.5c-2.6.4-4.7,2.2-5.5,4.6l-6.8,1.1-.7-6.1c2-1.4,3.1-3.8,2.7-6.4-.5-3.7-3.9-6.3-7.6-5.7-3.7.5-6.3,3.9-5.7,7.6.4,2.5,2.1,4.6,4.3,5.4l.8,6.3-7.2,1.2c-1.3-2.4-4-3.9-6.9-3.5-3.7.5-6.3,3.9-5.7,7.6.5,3.7,3.9,6.3,7.6,5.7,2.2-.3,4-1.6,5-3.4l8-1.3,4.4,35.9,6.3-.7-4.4-36.2,7.2-1.2c1.4,1.8,3.7,2.8,6.2,2.5,3.7-.5,6.3-3.9,5.7-7.6-.5-3.7-3.9-6.3-7.6-5.7h-.1Z"/>
          <path class="st9" d="M79.8,459.1l-3.6-38.5h5.9s-3.7-17,14.3-18.7,8.1,18.7,8.1,18.7h7l-7.8,39.4-23.9-.8h0Z"/>
          <path class="st9" d="M731,431.5l21.6-5.1-1.2-4.9-21.3,5c-2-5.1-7.2-8.4-12.7-8l-2.4-10.8-4.9,1.1,2.5,11.1c-4.5,2.3-7.2,7.2-6.7,12.3l-13.2,3.1,1.2,4.9,13.5-3.2c2.1,3.9,6.1,6.4,10.6,6.5l10.4,46.2,4.9-1.1-10.4-46c4.7-1.8,7.9-6.3,8.1-11.3v.2ZM725.2,427.7l-5.3,1.3-1.2-5.4c2.8,0,5.3,1.7,6.6,4.1h0ZM713.8,425.1l1.1,5-4,1c0-2.3,1.1-4.5,2.9-5.9h0ZM712.6,435.8l3.4-.8.8,3.4c-1.6-.4-3.1-1.3-4.2-2.6ZM721.8,437.8l-.9-3.9,4.9-1.2c-.5,2.2-1.9,4.1-4,5.1Z"/>
          <path class="st9" d="M658.7,484.6s-20.1-39.7,1.8-44.6c21.9-4.8,19.5,41.1,19.5,41.1l-21.3,3.5Z"/>
          <g>
            <g>
              <g class="st10">
                <path class="st5" d="M1031.2,576.2c-81-26.9-162.4-54.7-246.4-70.6-65-12.3-130.7-20.8-196.6-26.1,63.3-1.4,126.7-1.3,190,1.5,44.8,1.9,88.7,6.3,133,13.3,43.2,6.8,86.7,14,130.6,12.7,2.9,0,2.4-4.5-.5-4.5-41.1,1.2-81.9-5.2-122.4-11.6-39.6-6.3-79-11.2-119.1-13.4-83.4-4.4-166.9-4-250.3-1.5-2.6,0-5.2.2-7.7.3-1.8-.1-3.6-.2-5.3-.3-85.6-4.7-171.4-5.3-256.8,3-37.2,3.6-74.1,8.7-110.8,14.6-39.2,2.9-78.3,6.9-117.2,13.3-45.6,7.5-90.6,18.5-135.7,28.5-20.4,4.5-40.8,7.8-61.3,11.8-18.2,3.6-35.9,8.9-51.3,19.5-2.4,1.6.2,5.3,2.6,3.7,30.2-20.6,69.9-21.4,104.6-29.1,40.5-9,80.9-18.8,121.7-26.4,26.4-4.9,53-8.6,79.7-11.6-26,4.6-51.9,9.4-77.8,14.2-83.7,15.5-169.2,30.3-243.2,74.9-16.1,9.7-19.7,35.6-8.4,50.1,8.2,10.5,19.5,15.3,31.1,14.5.4,1.9.9,3.8,1.7,5.5,8.3,19.5,26.8,26.1,46.2,21,33.8-8.8,66.6-21,100.4-29.8,1.8-.5,3.6-.9,5.5-1.4.4,0,.8-.2,1.4-.4,3.4-.9,6.9-1.5,10.4-2.1,9.6-1.9,19.3-3.7,29-5.4,1.2-.2,2.3-.4,3.5-.6,3.4,20.3,19.4,31.1,39.2,31.1,139.2,0,278.5.4,417.7,2.7,19,.3,38.1.7,57.1,1.1,10,.2,20,.4,30.1.7,4.5,0,9,.2,13.5.3,2.5,0,5,0,7.5.2h2.8c9.8.3,18-.3,26.3-6.2,7.3-5.2,13.7-14.7,14.7-23.7.2-2.2.3-4.5,0-6.8,26.8,4.5,53.5,9.5,80.2,14.7,79.7,15.7,158.8,34,238,52.2,18.3,4.2,39-11.6,41-30,2.3-20.4-10.3-36.5-30-41-141.1-32.4-282.4-65.4-426.3-82.6-53.6-6.4-107.5-10.2-161.3-11.5,6.3-.3,12.5-.5,18.8-.7,20.5-.6,41.1-.6,61.6-.3,5.4,0,10.7.2,16.1.3,2.4,0,4.9,0,7.3.2h1c10.2.3,20.5.6,30.7,1.1,81.9,3.5,163.7,11.6,244.6,25.3,45.5,7.7,90.2,18.1,134.6,30.8h0c.2,0,.5,0,.8.2,2.8.8,5.6,1.7,8.4,2.5,5.6,1.7,11.2,3.4,16.7,5.1,11.1,3.5,22.2,7,33.3,10.6,22.1,7.2,44.1,14.5,66.2,21.8,17.8,5.9,39.8.8,47.3-18.4,6.5-16.7.7-41-18.4-47.3h-.2Z"/>
                <path class="st5" d="M1128.9,394.2c-37.6-13.7-78.2-13-117.6-15.1-43.9-2.4-87.6-9.3-131.4-13.9-92.5-9.5-185.2-16.6-278.1-19.8-187-6.3-373.6,7.3-558.3,37.3-34.5,5.6-69,11.4-103.3,17.9-.9,0-1.9.1-2.8.2-21.9,1.5-43.7,3.3-65.4,6-22.8,2.9-45.7,5.9-68.7,5-2.9-.1-3.6,4.3-.7,4.4,33.6,1.3,67-4.9,100.4-8.3-2.8.6-5.6,1.1-8.4,1.7-23.8,5-47.5,10.6-70.8,17.4-11.1,3.2-21.7,6.9-32.2,11.6-10.9,4.9-21.8,10.1-33.9,11.3-13.4,1.2-11.3,22.1,2.1,20.8,20.9-1.9,38.5-13.7,58.1-20.1,20.4-6.6,41.3-11.8,62.2-16.5,43.2-9.7,86.8-17.2,130.4-24.7,27.2-4.7,54.5-9.1,81.9-13.1,65.3-3.2,130.6-5.6,196-7.5,161-4.8,322-4.2,482.8,7.1,73.7,5.2,147.3,12.5,220.6,22.4-8.5-.9-17-1.8-25.6-2.6-43.1-4-86.3-6.7-129.5-9.1-89.1-5-178.1-11.6-267.3-13.2-87.4-1.7-174.7.6-262,5.4-86.7,4.8-173.5,11.2-259.8,20.9-92.1,10.3-184.7,29-269.6,67.2-17.1,7.7-28.9,27.6-21,46.2,7.2,17,27.9,29.2,46.2,21,36.8-16.6,75.1-29.5,114.2-39.5,4.4-1.1,8.9-2.3,13.3-3.3h-.3c.9-.2,1.7-.4,2.1-.4,1.8-.4,3.6-.8,5.4-1.2,10.8-2.3,21.5-4.5,32.4-6.5,19.5-3.5,39-6.5,58.7-9.1,84.9-11.1,170.8-17,256.2-22.3,86.2-5.3,172.5-8.3,258.9-7.6,9.9,0,19.9.2,29.8.4,5.5,0,10.9.2,16.4.3h1.2c3.5.1,7,.2,10.5.3,21.4.7,42.9,1.6,64.3,2.7,43.4,2.4,86.7,5.4,130,7.8,48.1,2.6,96.3,5.3,144.3,9.4,22.6,2,45.2,4.4,67.8,7,21.2,2.4,42.5,4.8,63.1,10.6,8,2.3,19.9-1.6,26.3-6.2,7.3-5.2,13.7-14.7,14.7-23.7,1-9.1-.4-18.9-6.2-26.3-6.3-8.1-13.9-11.9-23.7-14.7-13.4-3.8-27.1-6.1-40.8-7.9.7-1.2.3-3.1-1.5-3.4-158.4-23.9-318.6-35.3-478.7-38.5-140.1-2.8-280.4,1-420.5,7.3,48.6-6.4,97.4-11.7,146.3-15.8,184.8-15.3,369.7-9.1,554.1,8.6,50,4.8,99.9,12,149.9,16.2,42.8,3.6,88.3-.2,129.3,14.7,12.6,4.6,21.1-14.5,8.4-19.2l-.2.4Z"/>
                <path class="st5" d="M67.1,311.5c-96,8.4-191.6,23.6-283.8,52.4-12.9,4-5.5,23.6,7.4,19.6,164.8-51.5,340.8-59.4,512.3-62.9,88.1-1.8,176.3-1.2,264.4.5,86.8,1.7,173.7,3.4,260.4,7.7,48.4,2.4,96.7,5.8,144.8,11.4,23.8,2.7,47.3,6.3,70.8,10.6,23.5,4.3,46.9,8.6,70.8,10.2,13.3.9,16.7-19.8,3.2-20.7-25.4-1.8-50.5-6.3-75.5-10.8,0-1-.5-2.1-1.8-2.3-158.4-23.9-318.6-35.3-478.7-38.5-162.1-3.2-324.4,2.3-486.3,10.5-45.9,2.3-91.9,5-137.7,8.2-21.9,1.5-43.7,3.3-65.4,6-22.8,2.9-45.7,5.9-68.7,5-2.9-.1-3.6,4.3-.7,4.4,38.3,1.5,76.2-6.7,114.3-9.5,40.9-3,81.8-5.5,122.8-7.8,82.9-4.5,165.8-7.8,248.8-10.3,161-4.8,322-4.2,482.8,7.1,29.2,2,58.3,4.4,87.5,7.2-86.2-5.1-172.7-6.7-259.1-8.6-177.4-3.9-355.6-5.1-532.5,10.5h0Z"/>
                <path class="st5" d="M1279,230c-193.8-20.3-389-25-583.7-20.1-195.2,4.9-389.8,19-583.6,43.3-54.3,6.8-108.5,14.1-162.7,21.4-55.2,7.5-110.1,17.1-165.7,20.8-2.9.2-2.4,4.7.5,4.5,49.7-3.3,98.8-11.4,148-18.4,48.2-6.8,96.6-13.2,144.9-19.4,96.7-12.5,193.5-23.6,290.7-31.2,193-15.1,387.2-21.5,580.7-17,110.3,2.6,220.6,9.1,330.3,20.6,2.9.3,3.6-4.1.7-4.4h0Z"/>
                <path class="st5" d="M-228.7,213.2c184.6-27.2,371.5-29.4,557.6-34.2,186.1-4.8,372.3-11,558.5-3.3,104.1,4.3,208.2,13.1,311.3,28.6,2.9.4,3.6-4,.7-4.4-183.7-27.8-369.9-33.6-555.4-32.2-92.5.7-185,3.2-277.5,5.8-94.1,2.6-188.2,4.2-282.2,8.1-104.8,4.4-209.6,11.8-313.5,27.1-2.9.4-2.4,4.9.5,4.5h0Z"/>
              </g>
              <g class="st10">
                <path class="st5" d="M1031.2,538.9c-81-34.4-162.4-69.8-246.4-90.2-65-15.8-130.7-26.6-196.6-33.3,63.3-1.7,126.7-1.7,190,1.9,44.8,2.5,88.7,8,133,16.9,43.2,8.7,86.7,17.9,130.6,16.3,2.9-.1,2.4-5.8-.5-5.7-41.1,1.5-81.9-6.6-122.4-14.8-39.6-8-79-14.4-119.1-17.1-83.4-5.6-166.9-5.1-250.3-1.9-2.6,0-5.2.2-7.7.3-1.8-.1-3.6-.3-5.3-.4-85.6-6.1-171.4-6.8-256.8,3.8-37.2,4.6-74.1,11.1-110.8,18.6-39.2,3.7-78.3,8.8-117.2,17-45.6,9.6-90.6,23.7-135.7,36.4-20.4,5.8-40.8,9.9-61.3,15.1-18.2,4.6-35.9,11.4-51.3,24.8-2.4,2.1.2,6.8,2.6,4.7,30.2-26.3,69.9-27.4,104.6-37.2,40.5-11.5,80.9-24,121.7-33.7,26.4-6.3,53-11,79.7-14.8-26,5.9-51.9,12-77.8,18.2-83.7,19.8-169.2,38.7-243.2,95.7-16.1,12.4-19.7,45.5-8.4,64,8.2,13.4,19.5,19.5,31.1,18.6.4,2.5.9,4.8,1.7,7.1,8.3,24.8,26.8,33.3,46.2,26.8,33.8-11.3,66.6-26.8,100.4-38.1,1.8-.6,3.6-1.2,5.5-1.8.4,0,.8-.3,1.4-.5,3.4-1.2,6.9-1.9,10.4-2.7,9.6-2.4,19.3-4.7,29-6.9,1.2-.3,2.3-.5,3.5-.8,3.4,25.9,19.4,39.8,39.2,39.8,139.2,0,278.5.5,417.7,3.5,19,.4,38.1.9,57.1,1.4,10,.3,20,.6,30.1.8,4.5,0,9,.3,13.5.4,2.5,0,5,.2,7.5.2h2.8c9.8.3,18-.4,26.3-8,7.3-6.6,13.7-18.8,14.7-30.3.2-2.8.3-5.7,0-8.7,26.8,5.8,53.5,12.1,80.2,18.8,79.7,20,158.8,43.4,238,66.6,18.3,5.4,39-14.9,41-38.3,2.3-26.1-10.3-46.6-30-52.4-141.1-41.3-282.4-83.5-426.3-105.5-53.6-8.2-107.5-13-161.3-14.6,6.3-.3,12.5-.7,18.8-.9,20.5-.7,41.1-.7,61.6-.4,5.4,0,10.7.2,16.1.3,2.4,0,4.9.1,7.3.2h1c10.2.4,20.5.8,30.7,1.4,81.9,4.4,163.7,14.9,244.6,32.4,45.5,9.8,90.2,23.2,134.6,39.3h0c.2,0,.5.2.8.3,2.8,1.1,5.6,2.1,8.4,3.2,5.6,2.1,11.2,4.3,16.7,6.5,11.1,4.4,22.2,8.9,33.3,13.5,22.1,9.1,44.1,18.5,66.2,27.9,17.8,7.5,39.8,1.1,47.3-23.5,6.5-21.4.7-52.4-18.4-60.4l-.2.2Z"/>
                <path class="st5" d="M1128.9,306.4c-37.6-17.5-78.2-16.6-117.6-19.3-43.9-3-87.6-11.9-131.4-17.7-92.5-12.2-185.2-21.2-278.1-25.2-187-8-373.6,9.3-558.3,47.6-34.5,7.2-69,14.6-103.3,22.9-.9,0-1.9.2-2.8.2-21.9,1.9-43.7,4.2-65.4,7.7-22.8,3.7-45.7,7.5-68.7,6.4-2.9-.1-3.6,5.5-.7,5.7,33.6,1.7,67-6.2,100.4-10.6-2.8.7-5.6,1.5-8.4,2.2-23.8,6.4-47.5,13.6-70.8,22.2-11.1,4.1-21.7,8.8-32.2,14.8-10.9,6.2-21.8,13-33.9,14.4-13.4,1.6-11.3,28.2,2.1,26.6,20.9-2.5,38.5-17.5,58.1-25.7,20.4-8.5,41.3-15.1,62.2-21.1,43.2-12.4,86.8-22,130.4-31.6,27.2-6,54.5-11.6,81.9-16.8,65.3-4,130.6-7.1,196-9.6,161-6.2,322-5.3,482.8,9.1,73.7,6.6,147.3,16,220.6,28.6-8.5-1.2-17-2.3-25.6-3.3-43.1-5.1-86.3-8.6-129.5-11.7-89.1-6.4-178.1-14.8-267.3-16.9-87.4-2.1-174.7.8-262,7-86.7,6.1-173.5,14.3-259.8,26.7-92.1,13.2-184.7,37.1-269.6,85.9-17.1,9.8-28.9,35.3-21,59,7.2,21.7,27.9,37.4,46.2,26.8,36.8-21.1,75.1-37.7,114.2-50.5,4.4-1.4,8.9-3,13.3-4.2h-.3c.9-.2,1.7-.5,2.1-.6,1.8-.5,3.6-1,5.4-1.5,10.8-3,21.5-5.7,32.4-8.3,19.5-4.5,39-8.3,58.7-11.6,84.9-14.1,170.8-21.7,256.2-28.5,86.2-6.8,172.5-10.6,258.9-9.8,9.9.1,19.9.3,29.8.5,5.5.1,10.9.3,16.4.4h1.2c3.5.1,7,.2,10.5.4,21.4.8,42.9,2,64.3,3.5,43.4,3,86.7,6.9,130,10,48.1,3.4,96.3,6.7,144.3,12,22.6,2.5,45.2,5.7,67.8,8.9,21.2,3.1,42.5,6.1,63.1,13.5,8,2.9,19.9-2.1,26.3-8,7.3-6.6,13.7-18.8,14.7-30.3,1-11.6-.4-24.2-6.2-33.6-6.3-10.4-13.9-15.2-23.7-18.7-13.4-4.8-27.1-7.8-40.8-10.1.7-1.6.3-4-1.5-4.3-158.4-30.5-318.6-45.2-478.7-49.2-140.1-3.5-280.4,1.3-420.5,9.4,48.6-8.2,97.4-15,146.3-20.2,184.8-19.5,369.7-11.6,554.1,11,50,6.1,99.9,15.3,149.9,20.7,42.8,4.6,88.3-.2,129.3,18.8,12.6,5.8,21.1-18.6,8.4-24.5l-.2.5Z"/>
                <path class="st5" d="M67.1,200.8c-96,10.8-191.6,30.2-283.8,66.9-12.9,5.1-5.5,30.2,7.4,25.1C-44.5,227,131.5,216.9,303,212.4c88.1-2.3,176.3-1.5,264.4.7,86.8,2.1,173.7,4.3,260.4,9.8,48.4,3.1,96.7,7.5,144.8,14.6,23.8,3.5,47.3,8,70.8,13.5s46.9,10.9,70.8,13.1c13.3,1.2,16.7-25.2,3.2-26.4-25.4-2.2-50.5-8-75.5-13.8,0-1.3-.5-2.7-1.8-3-158.4-30.5-318.6-45.2-478.7-49.2-162.1-4.1-324.4,3-486.3,13.4-45.9,3-91.9,6.4-137.7,10.4-21.9,1.9-43.7,4.2-65.4,7.7-22.8,3.7-45.7,7.6-68.7,6.4-2.9-.1-3.6,5.5-.7,5.7,38.3,2,76.2-8.6,114.3-12.1,40.9-3.8,81.8-7.1,122.8-9.9,82.9-5.8,165.8-9.9,248.8-13.1,161-6.2,322-5.3,482.8,9.1,29.2,2.6,58.3,5.7,87.5,9.2-86.2-6.5-172.7-8.6-259.1-11-177.4-5-355.6-6.5-532.5,13.4h0Z"/>
                <path class="st5" d="M1279,96.5c-193.8-25.9-389-31.9-583.7-25.7-195.2,6.3-389.8,24.3-583.6,55.3-54.3,8.7-108.5,18-162.7,27.4-55.2,9.6-110.1,21.9-165.7,26.6-2.9.2-2.4,5.9.5,5.7,49.7-4.2,98.8-14.6,148-23.5,48.2-8.8,96.6-16.8,144.9-24.8,96.7-15.9,193.5-30.2,290.7-39.9,193-19.3,387.2-27.5,580.7-21.8,110.3,3.3,220.6,11.6,330.3,26.3,2.9.4,3.6-5.3.7-5.7h0Z"/>
              </g>
            </g>
            <path class="st1" d="M1393.3-1.7c0-177.8.9-355.7.2-533.5-.2-48.5-4.7-96.8-5-145.3-.3-43.3,6.3-86.9-3.5-129.4-1.2-5.1-6.6-8.5-11-7.9-71.2,9.2-143.2,4.3-214.5,0-34.8-2.1-69.6-4.2-104.4-4.6-35.2-.4-70.3,2.5-105.4,3.7-141.9,4.8-283.6-12.1-425.5-11.7-38.1,0-76-1.5-114.1-2.2-19-.3-38.1-1.3-57-3.4-18.5-2-38.4-2.8-56.3-8.8-3.4-1.1-4.3,5.2-.9,6.4,2.3.8,4.5,1.6,6.7,2.4-25.3-2.3-50.6-5.1-75.8-8.7-63.6-9-127-20.9-191-25.1-63.9-4.2-127.6,1.5-191.4,6.3-29.1,2.2-58.2,3.2-87.4,4.4-21.6.9-50.8,1.7-66.9,21.2-14.7,17.8-11.4,44.5-10.7,67,1.2,35,.9,70,2,105,4.6,150.2,4.3,300.6,6.4,450.8,2.1,152.6,3.1,305-2.1,457.6-2.5,72.1-3.8,274.7-6.4,346.7-.6,15.8.5,47.3,16.2,54.6,5.5,2.6,13.2,1.6,19,3,14.8,3.6,29.5,7,44.6,9,58.3,7.8,117.3,2.8,175.6-1.4,61.4-4.4,122.6-4.5,184.1-4.6,92-.2,183.9-.5,275.9.5,27.5,3.5,54.9,7.7,82.5,11.1,6.1.8,9.9-4.2,10.8-9.6,7,.2,14.1.3,21.1.5,131.2,3.3,262.1,12,393.3,13.8,129.9,1.8,259.8.4,389.7-1.2,15.5-.2,31.1,0,46.6-1.7,14.9-1.6,29.6-4.1,44.5-4.9,4.2-.2,8.3-4.8,8.7-9.7,4.1-42.3-5.9-213.6-7.6-255.6-1.7-43,.5-86.9,1.4-130,1.9-88.3,7.4-176.2,7.5-264.7h.1ZM145.1-715.6h0ZM-100.1-103.5c-.2,0-.4,0-.5-.2,0,0,.3,0,.4-.2,0,0,0,.3.2.4h0ZM1100.4,381.6c-15.9,5.7-30.5,13.9-44.8,23.8-4-3.9-4.8-11.9-3.5-18.7,1.5-8,5.8-14.1,9.3-20.8,1.4-1.6,2.6-3.3,3.5-5.1,4.8-3.7,11.2-4.6,15.2-9.4,4.4-5.3,4.6-15.6,3.1-22.3-1.2-5.5-4-9.5-8.9-10.2-3.6-.5-7.3,1.3-10.4,3.3-1.3.8-3.3,3.1-4.7,3.6-.7.6-1.5,1.3-2.2,1.9-2.4-3.3-3.4-6.9-2.9-10.8,0-1.5-1.5-2.5-2.4-1.2-5.1,6.7-2.7,13.6,2.9,18.7,1,.9,2.7.9,3.5-.4,2.7-4.6,6.3-9.1,11.1-10.8,9.8-3.6,12.7,8.1,11.2,16.9-1.8,11.1-9.4,10.8-17.1,9.8-.6,0-.9-.1-1.1,0-.6-.3-1.2-.5-1.8-.6-1.7,0-3.2,0-4.9.6-4.2,1.7-8,6.5-11.1,10-2,2.3-4.4,5.5-6.8,9.1-.8-1-1.6-1.9-2.6-2.7-5.8-5.2-15.8-6.9-22.7-9.9-8.7-3.9-17.8-8.5-25.6-14.5-8.3-6.4-24-25.6-12.7-36.6,4.2-4.2,10.9-3.6,16.7-5,1,1,2,2.1,3,3.3,4.2,5,8.2,16.3-.5,11.9-1.4-.7-2.3,1.8-1,2.5,2.5,1.4,4.2,2.3,6.9,2.7.6,0,1.3-.3,1.5-.9,3.2-11.1,4.2-24.3-2-34.2-2.4-3.9-6.8-4.5-10.2-2-6.1,4.4-11.3,10.8-16.2,16.8-3.2,4-5.2,8-5.2,13.6,0,15.6,12.1,28.2,22.6,35.5,7.3,5.1,15.4,8.6,22.3,14.4,6.1,5.2,10.1,17.8,9.9,26.9-.4,20.2-9.9,37.2-22.7,49.4-17.2,6.9-35.5,11-53.3,14.6-41.4,8.4-83.2,9.9-124.9,15.2-21,2.7-41.7,5.7-62.6,9.1-21.5,3.5-43.5,6.4-65.2,4.2-37.7-3.8-72.9-22-110.4-27.3-29.7-4.2-64.7-3.3-91,15.2-6.8,4.8-15.5,12.5-24.9,18.9-5.9-2.1-11.6-4.6-17-6.5-16.9-6-35-10-52.4-13.3-27.3-5.2-55.1-2.9-82.5,0-29.1,3.1-57.5,4.2-86.8,3-55.8-2.4-112.1-5.7-164.1-31.7-24.6-12.3-47.9-27.7-72.3-40.6-20.4-10.8-42.1-17.4-63-26.4-12.3-8.7-24.5-17.6-36.3-27.1-28.1-22.3-60.4-51.9-74.7-88.8-7.5-19.2-8.6-40.3-13.6-60.4-1.5-6-3.5-11.5-5.9-16.9-.5-3.6-1-7.2-1.6-10.8-2.1-14-2.3-28.3-.3-42.3,1.8-12.5,4.1-27.3,14.1-34.3,15.4-10.8,38.3-16.4,43.1-40.4,2.2-11.1-4.5-19.8-7.8-29.4-2.2-6.4-4.4-12.8-6.3-19.4.2-7.6-.7-15.2-3.1-22.9-.8-2.6-2-4.3-3.5-5.4-1.8-11.3-2-22.8,1.2-34.1,1.9-6.7,5.5-16.1,9.5-21.4,5.7-7.5,12.9-5.8,20.5-7.3,5.2-1,9.7-3.5,15.1-3.9,4.6-.4,9.4,0,14.1,0,9.3,0,18.8-.3,28,1.3,11.7,2,15.6,6.8,19.4,19.7,4.2,14.6,3.5,24.3-8.5,33-9.3,6.7-24.6,24.1-15.2,37.9,9.1,13.3,25.5,2.6,36.5,9.6.5.3,1.3,0,1.6-.5,3.2-5.4,5.9-12.2,5.4-18.9,0-1.4-1.9-1.2-1.9.2,0,3.9-1.1,8.3-2.8,11.7-4.3,8.9-.2,2.9-3.6,3.1-1.8,0-6.2-1.9-7.9-2.6-6-2.2-14.6-3.7-20.2-7-11.3-6.7,3.5-23.8,9.7-28.6,6.6-5.1,13-10.3,14.2-20.2,1.8-14.9-5.2-36.8-18.1-41.6-5.7-2.1-11.5-3.5-17.4-4.6-1.8-1.3-3.7-2.3-5.7-3.2-1.9-1.7-3.4-4-4.6-6.6,0-.6,0-1.3-.5-1.9-.3-.6-.6-1.2-.9-1.8-1.8-5.8-2.1-12.5-.2-17.8,2.3-4.5,6.7-7.1,13.2-4.6,3.9,1.5,6.9,6.1,10.3,8.7,5.3,4,12.6,6.9,18.9,6.9,18.4,0,27.5-18.8,22.6-38.3-2.3-9.2-12.9-36.7.6-39.1,19.5-3.5,25.8,20.6,11.3,32.5-6.1,4.5-2.8,14.4,3.3,16.1,10.2,2.8,19.7-7.9,19.4-19.8-.3-10.2-5.7-22.3-11.6-29.6-11-13.4-36.3-13-37.5,9.1-.6,10.8,4.6,21.6,2.8,32.2-1.3,7.2-6.4,16.3-10.4,22-6.2,8.8-13.1,7.4-20.4,1-7.7-6.8-15.8-10.6-24.4-2.1-1.2,1.2-2.1,2.4-2.9,3.7-1.8,2-3.1,4.7-4.1,7.9-1.4,4.5-2.6,8.9-4.9,12.5-5.8.4-11.7,1-17.5,1.6-11.6-4-24-2-33.8,5.5-11.7,2.9-23.4,8.1-28.3,21.2-9.7,25.8,9.4,52.8,1.6,79.4-3.6,12.3-14.2,32.5-28.4,25.1-3.6-1.9-5.5-6.1-8-9.4-4.3-5.4-8.9-8.1-15-10-.8-.2-1.6-.3-2.4-.2-3-6.5-5.8-13.1-8.2-20-1.9-21.6-3.3-43.1-3.4-64.9-.2-25,.2-50.1-1.3-75-.9-14.5-2.6-29-3.8-43.5.9-5.2,1.9-10.4,3.1-15.5,2.1-8.9,4.7-21.3,11.6-26.8,2.2-1.8,4.5-2.4,6.6-4.5,3.9-4,7.3-9.1,11.1-13.3,5-5.5,10-11.3,15.8-15.7,3.4-2.6,7.1-4.1,10.8-5.8,6.8.4,13.9,3.1,17.7,9.6,1.5,2.5,1.9,5.4,3,8,1.7,3.9,3.9,5.1,6,8.3.9.3,1.7.6,2.6.9-2,3.7-3.2,7.6-3.7,11.9-1.8,4.8-5,7.9-8.5,10.9-8.5,7.2-15.3,12.3-19.1,24.3-7.8,24.8,17.9,49.7,35.4,29.5,4.9-5.6,13-17.5,11.1-26.3-1.3-5.9-8.3-9.1-13.1-7.6-.6.2-.8,1.2-.5,1.7,1.7,2.7,2.8,1.9,5.1,3.6,2.6,1.9,2-.3,3.1,3.7,1.6,6.1-6.9,8.7-11,8.9-6.9.2-20.8-3.9-22.7-13.3-2.6-12.6,12.5-18.3,18.4-25.1,2.8-3.2,5-7.2,6.9-11.1,1.5-2.9,3.6-11.5,6.2-13.3,3-2.1,4.8-7.1,4.3-11-1.5-11-6.8-20.8-14.1-27.7,1.2-4.8,2.8-9.4,3.7-12.9.2-.9.5-1.8.8-2.7,1.1-1.1,2.2-2.2,3.4-3.2,5.7-5.3,11.5-10.8,16.8-16.9,4.7-4.1,9.1-8.5,12.5-14.1,8.2-13.4,9.4-29.3,9.9-45.3.3-10.7,1-23.3,4.8-33.7,0-.3.3-.7.4-1,2.3-6,5.8-11.2,10.9-14.7,10-6.9,18.5-20.4,30.4-22.9,6.3-1.3,11.3,3.1,17.4,3.9.9.5,1.8,1,2.7,1.5,12.8,6.8,24.1,16.4,34.8,27.1,5.9,5.9,10.9,12.9,16.8,18.9,5.2,5.3,10.7,8.4,13.6,16.1,4.3,11.5,5.7,28.2,1.4,41.1-.4.7-.9,1.5-1.4,2.1-4.9,6.1-11.1,4.1-17.3,3.1-10.2-1.6-23.5-2-25.5,13.1-.8,5.9.8,12.8.8,18.8s-.2,11.1,1.4,16.1c1.3,4,3.4,6.5,6.8,8.4,2.1,1.1,4.3,1.6,6.5,2.3,6.1,2,7.6,5.4,12.3,9,12,9.3,40.2-13.6,23.8-28.3-4-3.6-8.9,3.8-4.9,6.9,1.5,1.1,1.5,8.4,1,9.7-.8,2.3-3.3,3.8-5,5.2-4.1,3.4-5.9,4.2-10.9,3.2-5.6-1.1-8.9-5.6-14.4-7.9-7.6-3.1-12.6-6.5-13.2-16.2-.5-8-.2-17,7.3-18.2,12.4-2,22.8,5.7,32-8.7,4-6.4,5.8-16.1,6.6-24.7,5-18,1.6-42.2-2.2-57-3.5-13.5-13.4-24.9-23.4-34.4,12,5.3,22.5,10.3,35.9,7,13.4-3.3,23.2-13.1,30.6-26.2,5.6-9.9,16.1-26.2,13.7-38.7-1.3-6.7-5.5-13.2-8.1-19.2-3.3-7.6-6.3-15.5-10.6-22.3-6.9-11-16.4-13.9-27.7-11.8-10.7,2-23.2,6-28.7,17.8-6.5,14-1.4,25.4,9.5,32.8,4.2,2.9,9,5.6,13.9,6.6,3,.6,9.4-.9,10.1-.7,4.1,1.1,9.5-2.3,10.9-6.9l.7-2.5c1.9-6.2.2-13.4-5.4-16.1-5-2.5-9.2-3.3-14.5-1.3-3.5,1.3-6.3,5.4-6.7,9.6,0,.6-.1,1.2-.2,1.8-.3,2.6.1,5.4,1.2,7.7-3.5-3.5-6.3-10.1-6.7-14.2-1.3-13.4,7.2-27,18.9-29.4,16.8-3.4,23.3,15.4,29.2,29.9,2.2,5.3,6.4,12,7.4,17.6,1.4,8.5-5.6,16.8-9.9,22.9-7.1,10.1-16.4,20.6-27.2,25.1-11.5,4.7-22.4-.5-33.7-3.2-6.4-1.6-14.3-2-22.2-3-11.1-8.2-22.9-14.7-35.4-20-15.5-6.6-32.1-13.8-48.1-4.7-6.8,3.8-12,9.9-15.9,17.3-5.5,10.5-5.4,20-6.8,31.8-1.6,14-17.8,41.5-30.7,44.7-1.4.3-3.8.9-5.2.2.5.2.4-.7-.2-2.4-1.2-3.3-1.1-7.2-2.4-10.6-3.2-8.7-10.2-13.9-18.1-15-2.9-.4-5.7-.2-8.6-.2-.3-.7-.5-1.4-.8-2.1-2.3-7-1.9-13.7-1.1-20.5,4.4-9.9,9.2-19.5,14.6-28.7,20.9-35.3,51.8-58.5,78.4-87.5,9.5-10.4,19-20.9,28.8-30.9,1.5,5.6,4.8,11.1,9.3,16.2,13,14.9,23.3,2.7,37-3,3.3-2.9,5.4-2.4,6.3,1.6,2.7,3,2,5.8-2,8.3-.9,1.3-2.1,2.4-3,3.7-2.4,3.3-4.6,6.3-5.9,10.4-1.4,4.7-1.6,8.9,2.2,11.9.9.7,1.9-.4,1.4-1.5-2.3-4.7,7.4-14.7,9.1-19.1,2.2-5.5,3.1-11.9,2.8-17.9,0-.5-.4-1-.8-1-8.7-.6-14.6,4.5-22.1,8.8-7.8,4.6-15.7,3.1-20.8-5.7-3.2-5.5-6.5-14.1-4.7-20.9,0-.3.2-.6.3-.9,1.3-1.3,2.6-2.6,4-3.9,3.2-3,6.5-5.8,9.8-8.6,5.7-.9,11-1.7,15.7-2.6,15.3-3,28.6-8,42.5-15.6,14.7-8,28.6-9.6,44.6-8.6,16.3,1.1,31.9,5,48,7.4,7.5,1.1,14.8-.4,20.5,6.8,4.4,5.6,6.6,13.1,10.9,18.9,5.3,7,11.4,13.1,17.2,19.5,6,6.7,11.5,13.3,19.6,16.2,15,5.5,30.1.2,43.6-7.8,13-7.7,27.1-17.7,32.3-34.5,2.1-6.7,2-14-.1-20.6-2.3-7.2-6.8-9.5-10.4-15-9-13.9,19.7-28,29.3-29,13.6-1.4,31.3,12,42.5,23,5.1,9.9,8.8,20.8,14.3,30.5,1.5,2.7,3.4,5.4,5.5,7.9.2,2.5.2,4.9,0,7.4,0,.2-.2.4-.3.5-1,2.4-1.3,5-1.1,7.5-.8,3.2-2,6.4-3.6,9.5-6.5,12.5-14.4,24.2-18.5,38.3-7.9,27,8.3,49.5,32.1,38.7,12.2-5.6,22.3-16.5,30.1-28.6,1.2-1.9,2.6-5.7,4.1-7,2.6-2.3,3.8-.9,7.2,1.4,9,5.9,19.9,15.8,22.6,27.8,2.1,9.3,3.5,42.4,14.2,18.2.7-1.6-1.5-2.8-2.3-1.2-7.9,17.3-7.9-12.1-9.4-18.7-3.7-15.7-19.3-27.7-31.2-34.2-.9-.5-1.8,0-2.3,1-5.9,11.4-14.3,21.9-23.9,29.1-8.2,6.2-18.7,7.8-25.5,1.6-7.6-13.1,12.1-46.9,20-54.5,7.7-7.4,18.2-8.6,25.8-16.2,6.9-6.9,12.9-17.1,15.2-27.4,2.7-11.7,4.1-23.7,8.7-34.7,6-14.2,21.4-29.7,36-22,21.6,11.4,7.3,53.7,31.7,61.9,4.6,1.6,8.2-2.4,7.1-7.8-1.4-7,3.8-9.2,7.6-12.6.7-.6,5.1-6.1,6-6.2,5.8-.9,12.7,17.2,13.2,21.8.1,1.5,2.1,1.6,2.3,0,1.1-12-8.1-18-13.7-26.5-.5-.8-1.7-1-2.3,0-4.1,6.5-10.4,9.9-15.3,15.5-.9.7-1.4,1.2-1.6,1.7-.7-.8-1.4-1.6-2.2-2.3-3.2-4-5.6-8.8-7.7-13.6-5.4-12.3-10.4-26.5-21.5-33.4-9.7-6.1-20.5-3.8-29.3,3.5-11.3,9.3-15.5,24-20,38.4-3.4,10.7-8.9,17.6-15.7,23-1,.3-2.1.4-3.2.4-7.4,0-13.8-4.7-18.2-11.3-8.4-12.4-11-27.4-17.1-41.1-14.6-32.6-52.3-40.7-80.9-31.8-15.5,4.8-22.3,16.2-29.8,31.5-9.3,19-24.6,24.1-38.4,7-2.7-3.4-4.8-7-6.5-10.7.7-7.9,1.7-16.1,3.3-24.1h0c0,.2.3,0,.2,0,0-.2,0-.4-.1-.6,1-4.4,2.1-8.8,3.5-12.9h0c4.1-6,11-11.3,17.7-15.7,9.2-3.2,18.4-6.6,27.7-9.8,20.3-7.1,40.8-12.9,61.8-16.6,21.7-3.9,43.8-4.5,65.5-8.2,21-3.5,41.8-8.4,62.9-10.6,8.2-.9,16.5-1.2,24.7-1.3,9.4,3.7,18.5,8.3,28,11.6,10.1,3.6,21.2,6.3,30.2,13.1,8.2,6.2,12.1,17,19.4,24.4,7.5,7.6,21.8,9.9,27.1,19.3,3.6,6.2,1.9,11.4-1.4,16.1-.3,0-.5.3-.7.4-9.2,5.4-16.5,15.3-13,28,3.3,12.1,14,15.5,23.7,15.9,3.9.2,7.7,0,11.5-.5.7.2,1.4.3,2.2.6,3.4,1,6.4,2.6,9.7,4.1,4.5,2.1,8.4,2.3,13.1,3.7,7.8,2.3,16.5,7.1,18.6,16.8,2,9.3,2,21.2.4,30.5-3.4,18.7-21.1,20-32.6,29.5-9.4,7.7-14.2,25.1-7.1,37,8.8,14.6,28.8,11.7,35.7-2.9,1.8-3.9-1-8.6-4.4-9.3-6.9-1.4-12.2,1.3-18.9,3-13.8,3.4-12.1-17.5-3.5-24.8,9.6-8.2,23.9-9,31.2-20.9,7.5-12.2,5.6-31.5,5-45.5-.3-6.3-.7-12.1-1.9-17.2,8.1,2.2,16.7,2.6,24.6,2.3,16.8-.6,35.1-17.8,48.1,2.6,6.6,10.3,12.5,26.2,15.9,38.4,5,17.8,1.9,35.4-17.3,35-.6,0-.9.6-1,1.1,0,.4-4.1,16.1-4.4,16.3-1.8,1.1-2.6,2.6-2.6,4.9-.2,9.6,7.1,17.7,14.8,19.9,9.8,2.7,14.6-3.5,18.5-12.6,1.3-3-1.7-6.8-4.4-5.4-5.4,2.9-14.4,2.4-18.9-1.9-.4-.4-4.2-4.4-4.3-4.8-.3-.9,0-.6.5-3.4,1.9-9.5,2.4-10,10.1-12.2,2.8-.8,5.5-2.1,7.7-4.4,10.4-10.6,5.3-30.9.6-43.3-7.4-19.5-11.6-36.5-29.9-44.4-13.1-5.6-23.1-11.3-37.4-10.1-5.5.5-11,1.5-16.4,2.8-7.9-4-16.1-7.2-24.7-8.1-8.9-.9-17.3,1.1-26.1,2-5.2.6-10.6,1.1-15.8,0-3.9-1-2.6-.3-.3-2.2,9.2-7.5,18.1-7.3,22-21.9,3.7-14-4-26.6-4-40.5s.5-5.3,1.2-7.2c4.6-2.4,9-5.4,13.4-8.6,5.3-.7,11-.3,15.6-.7,11.6-.9,22.2-3.4,30.8-9,14.4,2.5,28.8,5.1,43.3,5.9,20,1.2,40.1,0,60.1-2.3,20.8-2.5,41.8-7.6,62.8-6.7,18.9.9,37.3,6.4,55.5,12.1,31.2,9.8,62.3,14.5,93.9,19.3,4.6,3.5,9.1,7.4,13.4,11.6,3.5,3.4,7.5,6.5,11.2,10,4.1,11.5,8.1,23,5.1,35.5-3.5,14.4-16.5,24.8-28.5,28.3-10.4,3.1-21,.8-30.8-3.9-6.7-6-12.6-13.4-19.2-19.3-9.8-8.7-20.1-10.9-32.2-10.4-21.9,1-48.5,15.3-62.1,35.5-3.5,5.2-5.2,10.9-5.7,17.3-.2,2.6-.6,5.2-1.1,7.7-1.1,2.8-1.9,5.7-2.4,8.9-3.5,24.8,6.6,50.5,26.3,61.4,2.9,1.6,6,2.8,9.1,3.4.4.2.8.5,1.2.6,4.2,2,8.4,2.8,12.8,3.9,8.2,1.9,10.6,6.7,11.6,16.6.5,4.6,1.1,13.9-4.1,15.5-4.4,1.4-6.3-4.1-8.7-6.8-4.4-4.8-10.9-7.2-16.7-7.3-10.8-.4-20.1,5.2-24.8,16.7-7.7,18.9,7.9,44.4,25.9,35.1,1.4-.7.6-3.2-.8-2.5-14.6,7-31.7-16.1-20.3-30.9,9.6-12.4,28.6,1.2,39.4,3.1,14.9,2.7,16-19.6,13.2-31.2-1.5-6.3-4.2-10.1-9.6-12.2-1.7-.7-3.3-1.2-4.9-1.8,1.7-.7,3.4-1.6,4.9-2.8,7.4-5.5,14.5-18.2,13.6-28.8-.6-7.5-3-19.8-9.1-24-5.7-4-14.1-1.9-20,.2-7.5,2.7-12.6,8.9-11.3,18.8,1.3,9.4,9.4,15.1,17.1,11.6,2.1-1,4.3-3.5,4.4-6.3.2-4.7-1.7-8.1-5.8-9.2-.5,0-1.4,0-2.2.2,0-.3-.2-.7-.2-1,0-1.9,0-5.3.8-6.9,2.5-5.9,10.4-7.2,15.1-4.1,3.9,2.6,4.7,7,5.8,11.9,2,8.9,2.6,15.5-3.5,22.3-4.2,4.7-11.5,9.6-17.4,10.1-21.7,1.9-35-23.7-35.7-45.5v-1.8c.2-1.1.4-2.1.7-3.2,3.4-12.1,14.4-19.3,22.4-27.7,15.1-15.8,36.1-23.7,56.2-22.7,5.6.3,10.4.3,15.6,3.1,5.5,3,9.6,8.2,14.4,12.5.4.4.8.7,1.2,1,.4.7,1,1.3,1.9,1.6,6.5,5.3,13.4,9.2,21.4,10.9,20.7,4.3,43.6,3.2,63.8-3.6,7.2-2.4,13.7-6.5,19.7-11.4,1.9,6.3,5.4,12.1,9.8,15.5,3.8,3,8.1,5.6,12.1,8.5,2.7,2,5.2,3.2,8.4,3.5,5.1.4,10-1.2,15.2-.6,8.5,1,17.8,4.5,24,11.6,10.4,12,0,26.4-4.9,38.4-2.1,5-4.4,9.1-8,12.8-7.5,7.9-13.5,7.3-21-1.9-4.3-5.3-7.6-10.9-14.4-8.3-7.7,3-15.3,13.6-17.3,22.6-2.3,10.3,1.1,21.1,6.1,29.5,7.3,12.3,18,11.2,28.2,4.4,2.7-1.8,4.4-6.4,3.9-9.9-2.8-19.6-19.1-1.2-28-4.1-13.7-4.5-4.1-28.1,4.1-32.6,9.1-5.1,10.6,2.5,16.3,8.8,9.3,10.2,24.8,19.3,36.2,8.9,9-8.2,16.9-25.6,14.4-39.1-2-10.8-5.7-25-13-32.6-4.8-5.1-11-8.3-17.3-10.1-6.8-2-14.3-.5-20.9-2.6-3.2-1.1-5.3-2.7-6.9-4.9.2-.2.3-.4.5-.6.3-.3,0-.9-.4-.6-.2.2-.4.3-.6.4-1.6-2.6-2.5-5.9-3.6-9.8-.4-1.7-1-3.2-1.7-4.7,0-3.3,0-6.2.3-7.2.9-7.4,2.5-13.5,5.8-19.9,4.4-8.6,10.7-16.4,16.1-24.6,8.3-8,17.7-13.4,27.8-16.8,2,0,4,.2,6.1.4,20.5,1.6,39.7,6.6,58.4,16.5,16.9,8.9,32.8,20.1,49.3,30,8,4.8,16,9.2,24.4,12.9s17.1,6.1,24.9,11.4c13.6,9.2,22.7,23.9,31.8,38.3,11.3,17.9,23.8,34.4,34.8,52.1,1.8,8.2,1.9,16.7-.7,25.7-1.8,6.5-5.4,10.3-9.5,13.3-3,1.2-5.8,3-8.5,5.4-.2.2-.5.4-.7.7-2.3,1.6-4.6,3.4-6.5,5.7-3.1,3.6-5.5,8.4-7,13.2-1.1,3.5-1.2,8.7-2.2,13.2-.9.8-1.8,1.5-2.8,2.1-6.8,4.3-14,4-21.5,4.3-7.4.2-21.8.9-24.1-10.1-1.2-5.6,0-15.3.6-21,1.6-13.8,15.2-24.7,27.1-18.7,5.7,2.9,7.6,12.7,1,15.9-1.1.5-2.4.2-3.4.6-3.1,1.1-2.1-1.4-1.2-.4-1.5-1.6-4.1-2-6-1.1-11.2,4.9-4,19.7,5,21.3,10.1,1.8,20.1-5.1,18.9-18.1-2-21.1-20.4-30.5-35.6-19-8.9,6.8-8.5,17.6-9.2,28.9-.7,11-1.4,17.5,7.2,23.5,12.7,8.9,25.6,20,41.1,12,2.8-1.4,5-3.5,6.9-5.8,0,3,.2,5.9,1.1,8.9,2.2,7.2,7.5,11.9,9.4,19.3,1.8,7,4,24.3-2.5,29.1-3.3,2.4-9.4,1.8-12.1-.5-1.9-1.6-3.4-7.4-4.3-9.8-1.3-3.3-2.1-6.8-4.2-9.6-4.1-5.4-10.4-7.4-15.8-3.4-6.3,4.7-7,14.4-8.6,22.1-2.6,12.7,3.8,22.3,14.2,26.1.6.2,1.2-.7.6-1.2-3.6-3.1-7.9-5.7-10.3-10.3-4.6-8.8-.9-19.9,8.5-19,7.8.8,12.3,7.6,18.3,12.4,10.1,8.2,16.4-1.5,24.8-8.1,9.7-7.6,16-23.6,4.5-33.9-4.1-3.7-8.9-4.1-12.7-8.9-4.5-5.7-5.7-13.6-3-20.7,1.1-2.9,3.1-7.4,5.1-9.6,2-2.3,5.1-2.8,7.5-5.1,3-2.8,5.1-7.7,9.4-7.3,4,.4,8.1,6.8,10.3,10.1,3.6,5.3,6.9,11.2,10,17.1,8.2,43.4,15.7,86.6,17.3,131.2.9,25.8,1.2,51.7,3.9,77.4,2,19.1,5.2,38,8.1,57-.9,3.4-1.9,6.8-3.1,10.3-1.4,4.1-8.5,22-16.6,34.7-10.8.9-19.9,10.1-30.5,9.7-4.8-.2-9.5-2.7-14.1-4.4-1.8-.7-5.3-1-6.8-2.2-5.9-4.6-2.9-14.7-.4-20.2,2.9-6.7,7.9-11.7,10.9-18.2,3.3-6.9,4.2-15.4,4.2-23.2,0-29.5-19.9-48.5-40.6-61.2-14.3-8.7-35.2-25.1-53.4-24.6-.2-.2-.5-.3-.7-.5-8-5-17.9-.5-25.7,2.7-3.6,1.5-7.2,2.9-10.9,4.2-5.9,2.2-8.8,4.8-14-.7-8.9-9.4-12.7-25.5-19.3-37.1-3.8-6.7-6.5-10.4-13.6-10.6-6.1-.1-12.3,1.6-18.4,1.8-1.2,0-17.6,1.4-16.3,2.2-2.8-1.8-5.4-15-6.2-18.2-2.1-8.5-4.2-19.5,1.3-27,3-4.2,13.2-9,16.6-2.4,2,3.8-1.2,7.6-4.4,10.7-.6-.4-1.3-.1-1.7.6-.6.9-1.2,1.7-1.8,2.6-6.7,5.5,1.8,17,7.9,9.8,8.1-9.7,8.6-29.5-6.2-29.6-20.4-.2-15.1,28.4-14.1,43,.4,6.4-1.8,17.3,5.8,19.3,2.7.7,6.6-1.1,9.1-2.1,8.1-3.1,15.7-5.2,24.3-6.1,6.4-.6,9.8,0,13.7,6,3.5,5.5,6.3,11.5,9.1,17.5,5.3,11.3,11.4,21.4,17.7,31.7,5.7,9.3,12,9.6,19.9,6.8-.5,1.3-1,2.6-1.4,3.9-.4.6-.7,1.2-1.1,1.8-7.7,13.6-9.6,31.1-18.8,43.7-3.1,4.2-9.5,8.9-15.1,8.5-.9-.9-1.9-1.9-3-2.7-6.1-4.4-12.9-9-19.8-11.4-12.8-4.4-32.5-5.3-42.7,6.6-7.9,9.2-11.5,29.4-9.4,41.9.8,4.7,2.7,8.3,5.4,11.1.2.4.3.7.5,1.1,4.1,7.8,9.7,8.6,16.8,10.2,7.2,1.6,26.5,11.3,25.9,22.2-.2,4.2-3.9,10.8-5.9,14-7,11.6-20.3,10.4-28,0-.4-.5-1,0-.7.6,5.6,8.3,15.5,14.8,24.2,8.7,6-4.3,14.4-17.8,14.3-26.3,0-9-13-18.7-18.6-23.1-5.3-4.2-11.3-4.7-16.9-7.8-11-6.1-10.5-19.1-8.7-31.3,1.4-9.6,5.1-15.6,10.1-19.1,5.2-1.2,11,1.3,16.5,4.5,3,1.7,6,3,9,4.4,2.6,2.3,5.2,4.4,7.2,6.1,7,5.9,16,14.2,24.9,15.2,12.1,1.5,20.4-6.5,26.6-17.6.9-1,1.8-2,2.6-3,7.1-8.7,9.9-18.7,13.1-28.9,3.2-5.7,6-11.5,8.5-16.6,1.5-3.2,3.4-8.2,5.9-12,1.8-1.9,3.8-3.5,5.9-4.7,6.4-1.1,17.2,6.5,22.2,9.1,7.6,3.9,15.7,7.8,23.3,12.7,2.2,2.6,4.3,5.3,6.4,8,5.5,7.2,10.5,14.1,11.5,24,1,10,1.9,19.2,0,29.2-4,19.5-3.2,39.9-1.3,59.6.9,9.4,2.1,18.8,2.4,28.3.2,6.8.4,13,2.7,19.4,5,13.6,16,20.6,25.6,29.3,11.2,10.1,21.8,21.1,29.5,35,3.7,6.6,6,13.1,8.2,20.4,2,6.6,4.1,9.3-.9,16.2-2.9,4-7.1,6.7-9.9,10.8-19.3,27.8-5.2,61.7-6.2,92.7-4,14-8.9,27.3-14.6,40.1-.7.8-1.4,1.7-2.2,2.4-3.2,3.2-6.9,5.3-9.5,9.3-4.8,7.5-6.6,17.2-11.2,24.9-5.2,8.5-16.8,16.6-27.6,18-4-1.8-7.7-4.1-10.8-7.5-15.2-16.4-19.5-46.1-29-66.9-8.1-17.8-19.4-32.7-35.5-41.1-3.6-1.9-7.2-3.5-11-4.9-4.7-3.1-9.6-5.8-14.6-8.1-15.7-7-30.8-6.7-47.3-8.9-11.9-1.6-17.5-5.5-22.2-18.7-4.2-11.7-5-24.3.6-35.7,2.9-5.9,7.3-11.2,12.7-14,6.2-3.2,10.4-1.3,15.7,2.9,2.2,1.8,4.3,3.8,6.8,5.2.6.3,3.7,1.2,3.9,1.7,2.8,4.7-.6,10-4.5,11.9-.4.2-.2.9.2.7,6.5-2,9.9-5.6,10.1-13.7,0-1-.3-1.9-1.1-2.4-8.4-4.8-16.4-15-26.5-12.4-10.3,2.6-19.2,12.9-22.8,24.2-7.4,23.9-.2,67.8,24.2,74.7,7.7,2.2,15.6,1,23.4,1.9,3.8.4,7.5,1.4,11.2,2.6-.4.3-.8.6-1.2.9-8.9,7.8-11.7,22.6-13.4,35.9-3.2,4.5-3.3,10.8-2,17.1-.9,8.4-2,18-6,24.5-2.3,3.8-.7,2.8-4,2.9-2.8,0-8.1-3.6-10.9-4.6-9.3-3.2-18.9-4.6-27.8-9.2-2.8-1.4-4.8,2.3-3.5,5,5,9.8,1,24,5,34.7,3.9,10.3,12.4,8.1,20,4.3,1.9-1,.8-4.5-1.1-3.5-21.6,10.5-14.6-16-17.2-32.6,12.5,3.7,25.6,6.1,37.2,12.6.8.5,2,.2,2.6-.7,4.6-7.2,6.8-15.7,8.5-24.5.9,2.4,2,4.5,3,6.4,3.1,5.7,7.9,13.1,13.6,15.4,7.1,2.8,14.9-.9,20.2-6.5,5.5-5.8,8.6-13.7,6.9-22.3-1.5-7.7-5.6-10.8-10.5-15.3-.7-.7-1.1-1.7-1.7-2.5,1.1,1.3,1.9,3.1.3,0-2.2-3.9-4-5.5-7.8-6.6-9-2.6-14.6,6.2-14.6,15.6,0,14.3,18.3,13.3,20.3.4.3-.3.7-.7.9-1.1,0-.2.2-.5.4-.7,1,.3,3.1.6,3.5.9,11.1,7.3-2,26.4-9.2,29.9-10,4.8-16.6-1.2-21.8-11.1-.9-1.7-1.9-3.9-2.7-6.3.6-3.3,1.1-6.6,1.6-9.9,2.1-12.9,3.2-33.5,15.4-39.2,4.5-2.1,9.4-2.2,14.5-1,9.7,6.2,18.2,14.7,24.5,25.3,1,1.7,2,3.5,2.8,5.2.5,4.6.9,9.4,1.8,14.7,2.2,12.2,7.3,23.4,10.9,35.2,3.1,21.3,3.6,42.5,0,63.8-2.4,14.7-7.1,28.9-12.6,42.4-1.9,4.8-4.1,9.3-6.3,13.9-5.2,4.2-10.3,8.6-15.2,13.1-17,15.6-33.6,32-51.7,45.8v-.6ZM1113.1,150.9c-.5,3.8-.9,7.4-1.3,10.7v.2c-.5-4-.3-7.9,1.3-10.9Z"/>
            <g>
              <path class="st1" d="M-9.5,422c-.1-.1-.3,0-.2.2,5.2,5.6,11.6,9.6,17.9,13.2.4.2.7-.4.4-.7-5.5-5.2-12.6-7.5-18.1-12.7Z"/>
              <path class="st1" d="M30.5,446.7c-2.5-1.3-4.9-2.8-7.3-4.3-.6-.4-1,.6-.6,1.1,3.7,3.6,8.9,9.1,14.1,8.5.7,0,1.2-1.3.5-1.8-2.1-1.5-4.5-2.2-6.8-3.4h0Z"/>
              <path class="st1" d="M93,472.2c-7.9-4.7-17.5-3.8-25.7-8-1.5-.8-3,1.9-1.5,2.9,7.7,5.5,17.8,8.3,26.8,8.3s1.7-2.6.5-3.3h-.1Z"/>
              <path class="st1" d="M168.8,492.6c-10.2-3.2-21.3-2.6-31.7-5.6-.6-.2-1,1.1-.3,1.3,9.8,3.6,21.7,8,32,6.4,1.1-.2,1-1.9,0-2.2h0Z"/>
              <path class="st1" d="M14.7,459.2c-.7-.3-1.2.9-.5,1.3,4.3,2.1,8.4,5,12.8,7,.7.3,1.2-.8.5-1.3-4.1-2.7-8.5-4.9-12.8-7Z"/>
              <path class="st1" d="M377.3,477.4c-9.7.4-19.2,2.6-28.7,4.8-12.3,2.8-24.4,2.2-36.9,2.3-.2,0-.3.5,0,.5,9.7.4,19.5,1.7,29.2.7,9.8-1,19.7-4,29.5-2.1,14.7,2.7,29.2,10,43.1,15.5,2.2.9,3.9-1.7,2.8-3.9-7.8-15.2-24.8-18.3-39-17.8Z"/>
              <path class="st1" d="M432.5,498.2c-.4,0-.6.7-.2.9,5.2,1.9,11.3.3,16.2,3.1.5.3.9-.5.5-.9-5-4.6-10.7-2-16.5-3h0Z"/>
              <path class="st1" d="M470.5,503.3c-4.2,1.6-8.9,4.4-13.1,1-.4-.3-.8.3-.4.6,3.8,3.5,10.7,5,14.6.9,1-1.1.3-3.1-1.2-2.5h.1Z"/>
              <path class="st1" d="M563.8,476.1c-11.6,1.3-23,4.4-31.3,14.5,0,.2,0,.4.2.3,9.7-9.8,22.9-12.5,35.4-11.2,10,1,19.2,6.3,29.3,6.6,2,0,3.6-2.8,1.7-4.5-9.8-8.8-23.7-7-35.3-5.7h0Z"/>
              <path class="st1" d="M627.1,486.1c-.7-.4-1.2.9-.5,1.3,3.4,2,7.4,3.8,11.3,4.1.7,0,1.2-1.2.4-1.5-3.8-1.3-7.5-1.9-11.2-3.9Z"/>
              <path class="st1" d="M673.1,498.3c-4.3.7-8.5.6-12.7-1-.4-.2-.7.6-.3.7,4.2,1.6,8.6,1.8,13,1,.4,0,.4-.9,0-.8h0Z"/>
              <path class="st1" d="M995.7,451.1c-18.9-5.3-35.8,16.2-54.6,16.7-10.6.3-21,.5-31.4,3.6-13,3.9-25.1,10.6-38.8,11.1-.3,0-.2.5,0,.5,10.6,0,20.1-3.5,30.2-6.7,14.3-4.6,27.1-5,41.8-4.5,18.2.6,34.9-8.9,52.5-13.1,3.7-.9,3.9-6.5.2-7.6h0Z"/>
            </g>
          </g>
        </g>
      </g>
    </g>
    <g id="Layer_4">
      <g id="moon">
        <g>
          <circle class="st7" cx="441.1" cy="250.8" r="189.6"/>
          <path class="st3" d="M326.3,135.9c-.7,1.5-1.2,3.1-1.5,4.8-.9,4.3-.5,9.2,2.4,12.5,1.9,2.2,4.8,3.5,7.6,4.2,8.4,2,17.3-.9,24.8-5.3,12.1-7.1,25.6-20.6,26.5-35.3.3-4.5-1.1-9.3-4.7-12-3.5-2.7-8.4-2.9-12.8-2.2-11.1,1.6-19.6,9.1-27.9,16.2-5.7,4.9-11.4,10.5-14.3,17.3v-.2Z"/>
          <path class="st3" d="M295.7,209.7c2.1,6.1,2,14.1,1,18.1-2,7.8-15.4,24.1-24.4,20.8-4.4-1.6-5-7.6-4.3-12.2,1.2-7.6,8.3-32.7,17.7-34.4,5.2-.9,8.3,2.8,10,7.8h0Z"/>
          <path class="st3" d="M623.5,201.9c2.3,12.8-7.7,31.4-21.6,19.9-8.2-6.8-8.2-21.2-4.8-30.3,7-19,23.9-3.3,26.4,10.4h0Z"/>
          <path class="st3" d="M353.2,246.6c2,5.9.8,22.6-8.9,21.1-3-.5-5.5-2.6-7.4-5-5.6-6.8-8.9-24.6,4.1-25.7,5.6-.5,10.4,4.3,12.2,9.6h0Z"/>
          <path class="st3" d="M478,158.5c-4.3,2.1-8.8,4.1-13.5,3.9-4.7-.3-9.7-3.8-9.7-8.5-.2-10.2,17.5-22.7,26.8-22.1,4.1.3,8.2,2.2,10.4,5.7,3.4,5.5.9,13.1-3.9,17.5-4.8,4.3-11.3,6.2-17.6,7.9"/>
          <path class="st3" d="M481.4,190.1c-3.2,5.6-15.5,11.5-18.9,2.6-2.8-7.4,5.8-19.1,13.9-17.1,5.8,1.4,7.9,9.4,5,14.5Z"/>
          <path class="st3" d="M564.2,181.7c7.9-12.3,26.9,6,18.3,16.1-8.7,10.2-25.1-5.6-18.3-16.1Z"/>
          <path class="st3" d="M580.3,296.9c16.9,20.5-21.5,35.5-20.7,7.5.3-11.9,12.4-17.6,20.7-7.5Z"/>
          <path class="st3" d="M301.9,357.7c-7.4.8-15.9-6.7-8.8-13.7,9.1-8.9,18.4,12.7,8.8,13.7Z"/>
          <path class="st2" d="M296.2,238.7c4.8-4.5,7.5-11.1,7.2-17.6"/>
          <path class="st2" d="M305.5,175.3c1.7-3.9,4.7-7.2,8.4-9.3"/>
          <path class="st2" d="M594,182.7c.4-4.2,4.7-7.6,8.8-7"/>
          <path class="st2" d="M592.4,171.5c1.3-.3,2.7-.5,4-.8"/>
          <path class="st2" d="M355.4,238.7c3,3.1,4.6,7.7,4,12"/>
        </g>
      </g>
      <g id="battys">
        <path class="st1" d="M314.7,106.4c-2-.8-4.3-1.3-6.4-.7,4.4,1.3,7.2,6.3,6.1,10.7,1.3-.5,2.9,0,3.9,1.2,1,1,1.5,2.4,2,3.8,1.6-.4,3.3.2,4.6,1.2,1.3,1,2.3,2.3,3.3,3.6.6.8,1.3,1.6,2.3,1.8,1.5.3,2.8-1.1,3.2-2.5.4-1.4.3-3,.7-4.4.5-1.9,1.9-3.5,3.7-4.2-1.1-3,.9-6.7,4-7.5-.6-5.3,2.5-10.8,7.3-13-1.9-.8-4.2-.6-6.2,0-4.7,1.4-8.7,4.7-11.1,9-1.4,2.7-2.2,5.7-2.3,8.7,0,.9.4,6.8,1,7.2-.7-.5-1.7-.5-2.3.2-1.8-2.9-2.7-6.2-5.1-8.8-2.4-2.6-5.5-4.7-8.8-5.9v-.4Z"/>
        <path class="st8" d="M329.3,124.1c-.3,0-.4-.6-.4-.9.3.3.7.3,1.1.6-.1.2-.5.4-.7.4h0Z"/>
        <path class="st8" d="M331.7,123c.2.8-.9.4-.9.6.2-.3.3-.7.4-1.1.2,0,.4.3.5.5Z"/>
        <path class="st1" d="M356.6,130.1c-1.2-.5-2.5-.7-3.7-.4,2.5.7,4.2,3.7,3.6,6.2.8-.3,1.7,0,2.2.7s.9,1.4,1.2,2.2c.9-.2,1.9.1,2.7.7,1.5,1.1,3.2,4.8,4.8,2.1.5-.9.2-1.5,1.2-2.2.4-.3,4.5-1.1,4.2-.2.3-.8.8-1.6,1.5-2.1s1.7-.7,2.5-.4c0-2.9,2.4-5.6,5.3-6-2.6-.4-5.3.7-7.7,1.6-1.3.5-2.6,1-3.6,1.9-1.2.9-2,2.2-3.2,3.2-1.1.9-1.8.7-2.9,1.3-1.1-1.7-1.6-3.6-3-5.1s-3.2-2.7-5.1-3.5Z"/>
        <path class="st8" d="M365.1,140.4c-.2,0-.3-.4-.2-.5.2.2.4.2.6.3,0,0-.3.3-.4.2Z"/>
        <path class="st8" d="M366.5,139.7c.1.5-.5.3-.5.3,0-.2.2-.4.3-.6.1,0,.2.2.3.3h0Z"/>
      </g>
      <g class="st6">
        <g class="st6">
          <path class="st5" d="M279,109c.2,0,.4.3.9.7.4.4.9.9,1.3,1.5s.9,1.1,1.3,1.6c.4.5.6.8.6.9-.1.1-.2.3-.4.4-.1.1-.3.3-.4.4-.1.1-.2.3-.4.4,1.1,1,2.1,1.9,3,2.8.9.9,1.7,1.7,2.3,2.4.6.7,1.1,1.2,1.5,1.6.4.4.5.7.4.8-.1.3-.4.4-.8.5-.4,0-.9.1-1.4,0-.5,0-1,0-1.6-.2-.5-.1-.9-.2-1.2-.4-.6-.4-1.2-.8-1.8-1.3-.6-.5-1.2-.9-1.8-1.3-.6-.5-1.2-.9-1.8-1.4-.5.5-.9.9-1.4,1.4-.4.5-.9.9-1.3,1.4-.2.2-.5.4-.7.7-.2.2-.4.4-.7.6,1.2,1.1,2.3,2,3.4,2.9,1,.9,1.9,1.7,2.7,2.4.7.7,1.3,1.3,1.7,1.7s.6.7.5.8c-.1.2-.4.4-.9.6-.5.1-1,.2-1.5.2s-1.1,0-1.6-.1c-.5,0-.9-.2-1.2-.4-.8-.5-1.5-1-2.3-1.6-.8-.5-1.5-1-2.2-1.5-.8-.5-1.6-1.1-2.3-1.6-.2.2-.4.4-.6.6-.2.1-.4.3-.6.5-.2.2-.4.3-.6.5-.1,0-.4.1-.7.2-.3,0-.7,0-1.1.1-.4,0-.7,0-1,0-.3,0-.5,0-.6-.2,0,0,.1-.4.5-1.1.4-.7,1-1.6,1.7-2.6-1.7-1.2-3.4-2.3-5.1-3.6-1.7-1.2-3.3-2.4-4.8-3.5-1.5-1.1-2.8-2.1-3.9-2.9-1.1-.9-1.8-1.5-2.1-1.9-.5-.6-.8-1.3-1-2.1-.2-.8-.3-1.7-.3-2.5,0-.8,0-1.5.2-2.2.1-.6.3-1,.5-1,.1,0,.5.2,1.2.6s1.4.9,2.4,1.7c1,.7,2.1,1.6,3.4,2.6,1.3,1,2.6,2.1,4,3.2,1.4,1.1,2.9,2.3,4.4,3.6,1.5,1.2,3,2.5,4.4,3.7.5-.8,1-1.5,1.6-2.2s1-1.4,1.5-2.2c-1.6-1.2-3.2-2.5-4.8-3.7-1.6-1.3-3.1-2.5-4.5-3.6-1.4-1.1-2.6-2.1-3.6-3-1-.9-1.7-1.5-2-1.9-.5-.6-.8-1.3-.9-2.2-.2-.9-.2-1.7-.2-2.5,0-.8,0-1.5.3-2.1.2-.6.4-.9.6-1,.2,0,.9.4,2.1,1.3,1.2.9,2.7,2.1,4.5,3.6,1.8,1.5,3.7,3.2,5.8,5.1,2.1,1.9,4.2,3.8,6.3,5.7.9-1.1,1.4-1.7,1.5-1.7Z"/>
        </g>
        <g class="st6">
          <path class="st5" d="M293.3,94.8c0,0-.2.5-.6,1.2-.4.7-.9,1.6-1.6,2.5-.6,1-1.3,2-2,3-.7,1.1-1.4,2-1.9,2.7,1.1.9,2.2,1.6,3.1,2.2,1,.6,1.6.9,1.9,1,.3,0,.6,0,1,0,.3,0,.6-.2,1-.3.4-.2.8-.4,1.2-.7.3-.2.5-.6.5-1.1,0-.4-.3-1.1-.8-1.8-.5-.8-1.4-1.8-2.7-3.2.6-.9,1.2-1.6,1.6-2,.4-.5.7-.8.9-1,.3-.2.5-.3.6-.3,0,0,.3.2.6.6.3.3.6.7.9,1.3.4.5.7,1.1,1.1,1.7.4.6.8,1.2,1.1,1.8.3.6.6,1.2.8,1.7.2.5.3,1,.2,1.3-.1,1-.7,2-1.6,2.9-.9.9-1.9,1.7-3,2.3-1.1.6-2.2,1.1-3.2,1.5-1,.4-1.7.5-2.1.5-.3,0-.8-.3-1.5-.8-.7-.5-1.5-1.1-2.5-1.9-.9-.8-1.9-1.7-3-2.7-1.1-1-2.1-2-3-3.1-.9-1-1.8-2.1-2.5-3s-1.2-1.8-1.5-2.6c-.4-1.1-.4-2.3,0-3.6.4-1.3.9-2.5,1.7-3.7.8-1.1,1.6-2.1,2.6-2.8,1-.7,1.9-1.1,2.7-1.1.5,0,1.2.3,2.1.8.9.5,1.9,1.3,3,2.3,0,0,.4.4.9.8.5.4,1,.9,1.6,1.4.6.5,1.1,1,1.5,1.5.5.5.7.7.8.8ZM284.7,102.3c.2-.5.5-1.2.8-1.9s.6-1.4.9-2c.3-.6.6-1.2.8-1.7.2-.5.4-.9.5-1.1-.3-.2-.6-.5-1-.8-.4-.3-.8-.6-1.2-.9-.4-.3-.7-.5-1.1-.7-.3-.2-.5-.2-.7-.2-.3.1-.7.4-1.2.8-.5.4-1,.9-1.3,1.5-.4.6-.6,1.2-.7,1.9-.1.7,0,1.3.7,2,.3.4.8.9,1.5,1.5.6.6,1.3,1.1,2,1.7Z"/>
        </g>
        <g class="st6">
          <path class="st5" d="M297.9,69.9c.1,0,.3.4.6,1.3.2.9.5,2,.8,3.4.3,1.4.6,3,1,4.8.3,1.8.7,3.7,1,5.6,1.6.8,3.1,1.5,4.6,2.2s2.8,1.4,3.9,2c1.1.6,2,1.1,2.6,1.5.6.4.9.6.8.7-.2.2-.5.3-.9.4-.4.1-.9.2-1.4.2-.5,0-1,0-1.5,0-.5,0-.9,0-1.1-.1-.7-.2-1.4-.4-2.1-.7-.7-.3-1.4-.5-2-.7-.7-.2-1.4-.5-2-.7.2,1.3.4,2.5.5,3.7s.3,2.1.4,3c.1.9.2,1.6.2,2.1,0,.5,0,.8,0,.9-.2.2-.5.3-.8.3-.3,0-.6,0-.9-.2-.3-.1-.6-.3-.8-.5-.2-.2-.4-.4-.5-.6-.4-1.3-.8-2.6-1.1-3.8-.4-1.2-.7-2.4-1-3.4-.4-1.2-.7-2.3-.9-3.3-1.2-.5-2.4-.9-3.6-1.4s-2.2-.9-3.2-1.3c-1-.4-1.8-.8-2.4-1.1-.7-.3-1.1-.5-1.3-.7-.4-.3-.6-.7-.6-1.1,0-.5,0-1,.1-1.4.1-.5.3-.9.5-1.2.2-.4.5-.6.7-.6.2,0,.5,0,.9.2.5.1,1.1.4,1.8.7.7.3,1.6.6,2.5,1.1.9.4,1.9.9,3,1.4-.3-1.4-.6-2.6-.8-3.7-.2-1.1-.3-1.8-.3-2.3,0-.6.1-1.3.4-2,.3-.7.6-1.5,1-2.1.4-.7.8-1.2,1.1-1.6.4-.4.7-.7.8-.7Z"/>
        </g>
        <g class="st6">
          <path class="st5" d="M335.8,64.2c.2,0,.3.2.5.3.2.2.3.4.4.6.1.2.2.4.3.6s.1.4.2.5c0,.2-.2.5-.6.9-.4.4-1,.9-1.6,1.4.5.7,1.1,1.4,1.7,2.2.6.8,1.1,1.6,1.6,2.3.5.7.9,1.4,1.2,1.9.3.6.5.9.6,1.1.1.3,0,.6-.2.9-.2.3-.5.6-.8.8-.3.2-.7.4-1,.4-.4,0-.7,0-.9-.1,0,0-.2-.3-.5-.6-.2-.3-.5-.7-.8-1.1-.3-.4-.6-.9-.9-1.5-.3-.5-.6-1.1-1-1.7.2.6.3,1.3.5,2.1.1.8.2,1.5.3,2.2,0,.7,0,1.3,0,1.9,0,.5-.2.9-.3,1.1-.3.3-.8.6-1.5,1-.7.4-1.5.8-2.2,1.1-.8.4-1.5.6-2.1.9-.6.2-1.1.3-1.3.3-.2,0-.6-.2-1.1-.5-.5-.3-1.2-.7-1.9-1.2-.7-.5-1.4-1.1-2.2-1.8-.8-.7-1.4-1.5-2-2.4-.6-.9-1.2-1.8-1.8-2.7-.6-.9-1.1-1.8-1.4-2.6-.4-.8-.6-1.6-.7-2.2,0-.7,0-1.2.3-1.5.1-.2.3-.3.5-.5s.3-.3.5-.5c-.2,0-.4,0-.4,0-.2,0-.6-.2-1.1-.4-.5-.2-1.1-.6-1.8-1-.7-.4-1.4-1-2.1-1.7-.7-.7-1.4-1.5-1.9-2.3-.6-.9-1.1-1.8-1.6-2.7-.5-.9-.9-1.8-1.2-2.7-.3-.8-.5-1.6-.5-2.3,0-.7.1-1.2.4-1.5,1-1.1,2.1-2,3.4-2.9,1.3-.9,2.5-1.6,3.7-2.2,1.2-.6,2.2-1,3.1-1.2.9-.2,1.4-.2,1.6,0s.4.6.6,1.1c.2.5.4,1.1.6,1.8.2.7.3,1.3.4,2,.1.7.2,1.2.2,1.7,0,.9,0,1.8,0,2.6,0,.8-.2,1.3-.6,1.4-.1,0-.3,0-.6-.3-.3-.3-.6-.6-.9-1.1-.3-.4-.7-.9-1.1-1.5-.4-.5-.7-1-1-1.5s-.6-.8-.8-1.1c-.2-.3-.4-.5-.4-.5,0,0-.2,0-.4.1-.2,0-.4.2-.7.4-.3.2-.5.3-.7.5-.2.2-.3.3-.3.5,0,.1,0,.5,0,1,0,.5.2,1.2.4,1.9.2.7.4,1.6.8,2.4.3.9.8,1.8,1.4,2.6.8,1.2,1.6,2.2,2.4,2.9.8.7,1.5,1,2,.9l3.9-1.9c.5-.2.8-.2,1,.1.2.3.4.7.5,1.1,0,.4,0,.9,0,1.3,0,.4-.1.7-.2.7-.2.1-.5.3-.8.5-.4.2-.8.5-1.1.7-.4.2-.7.5-1,.7-.3.2-.5.4-.5.5s0,.5.2,1c.2.5.5,1.1.8,1.9.3.7.7,1.5,1.2,2.4.5.9,1,1.8,1.6,2.7.4.6.8,1.2,1.3,1.8.5.6.9,1,1.3,1.4.4.4.8.6,1.2.8.3.2.6.2.8,0,.2-.2.3-.6.4-1.3,0-.7.1-1.4.2-2.2,0-.8,0-1.6,0-2.3,0-.7,0-1.1,0-1.3,0-.2,0-.4,0-.7,0-.3,0-.6,0-1-.7.6-1.2.8-1.5.9-.3,0-.6,0-.9-.4-.3-.3-.7-.7-.9-1.1-.3-.4-.5-.9-.6-1.3-.1-.4-.1-.8,0-1,0-.1.3-.3.7-.6.4-.3,1-.6,1.6-1,.6-.3,1.3-.7,2-1.1.7-.4,1.4-.7,2.1-1,.6-.3,1.2-.5,1.7-.7.5-.2.8-.2.9-.2Z"/>
        </g>
        <g class="st6">
          <path class="st5" d="M364.5,49.5c.1.1.3.4.5,1,.2.6.3,1.2.5,1.9.1.7.3,1.4.4,2,.1.6.1,1,.1,1.1-.2,0-.3.1-.5.2-.2,0-.4.1-.5.2-.2,0-.3.1-.6.2.5,1.4.9,2.7,1.3,3.9.4,1.2.7,2.3.9,3.2.2.9.4,1.6.5,2.1.1.5.1.8,0,.9-.2.2-.6.2-1,0-.4-.1-.9-.3-1.3-.6-.5-.3-.9-.6-1.3-.9s-.7-.7-.9-1c-.3-.6-.6-1.3-1-2-.3-.7-.6-1.4-.9-2-.3-.7-.7-1.4-1-2.1-.6.2-1.3.4-1.9.6s-1.2.4-1.8.6c-.3,0-.6.1-.9.3-.3.1-.6.2-.9.2.6,1.5,1.1,2.9,1.6,4.2.5,1.3.9,2.4,1.2,3.4.3,1,.6,1.7.7,2.3.2.6.2.9.1,1-.2.1-.6.2-1.1,0-.5-.1-.9-.3-1.4-.5-.5-.3-.9-.5-1.3-.8-.4-.3-.7-.6-.9-.9-.4-.8-.9-1.6-1.3-2.5-.5-.9-.9-1.6-1.3-2.3-.4-.8-.9-1.7-1.3-2.5-.3,0-.5.1-.8.2-.3,0-.5,0-.8.2s-.5.1-.7.1c-.2,0-.4,0-.7-.2-.3-.1-.6-.2-1-.4s-.6-.3-.9-.5c-.3-.2-.4-.3-.5-.4,0,0,.3-.3,1-.7.7-.4,1.6-.9,2.8-1.5-.9-1.8-1.9-3.7-2.9-5.5-1-1.9-1.8-3.7-2.6-5.3s-1.5-3.1-2-4.4c-.6-1.3-.9-2.2-1-2.7-.2-.7-.1-1.5,0-2.4.2-.8.5-1.6.9-2.4.4-.7.7-1.3,1.2-1.8.4-.5.7-.7.9-.7.1,0,.4.4.8,1,.4.6.8,1.5,1.4,2.6.5,1.1,1.1,2.4,1.8,3.9.6,1.5,1.3,3,2.1,4.7s1.5,3.4,2.2,5.2c.7,1.8,1.5,3.6,2.2,5.3.8-.4,1.6-.8,2.4-1.2.8-.4,1.6-.8,2.4-1.2-.8-1.8-1.7-3.7-2.5-5.6-.8-1.9-1.6-3.6-2.3-5.3-.7-1.6-1.3-3.1-1.8-4.3-.5-1.2-.8-2.1-.9-2.7-.1-.7,0-1.5.2-2.4.3-.8.6-1.6,1-2.4.4-.7.8-1.3,1.2-1.8.4-.5.8-.7,1-.6.2,0,.6.7,1.3,2.1.6,1.4,1.4,3.1,2.2,5.3.8,2.2,1.8,4.6,2.8,7.2,1,2.7,2,5.3,2.9,7.9,1.3-.6,2-.8,2.2-.8Z"/>
        </g>
        <g class="st6">
          <path class="st5" d="M375.4,31.2c.3.1.6.4,1,.9.4.5.8,1.1,1.2,1.9.4.7.9,1.6,1.3,2.5.4.9.8,1.8,1.2,2.6.4.9.7,1.7,1,2.5.3.8.5,1.4.7,1.9.2.6.5,1.2.7,1.9.2.6.4,1.3.6,1.9s.3,1.1.4,1.6c.1.5.1.9.1,1.1,0,.6-.3,1-.7,1.4-.4.3-.9.6-1.5.9-.3.1-.8.3-1.5.5-.7.2-1.5.4-2.3.6-.8.2-1.6.4-2.4.6-.8.2-1.3.3-1.7.3-.8,0-1.4,0-1.8-.1s-.8-.5-1.3-.9c-.2-.2-.4-.6-.7-1.4-.3-.8-.7-1.8-1.1-2.9-.4-1.1-.8-2.4-1.2-3.7-.4-1.3-.7-2.6-1-3.9-.3-1.2-.5-2.3-.7-3.2-.2-.9-.2-1.6-.1-2,.2-.6.6-1.2,1.3-1.9.7-.7,1.3-1.2,1.9-1.7.3-.2.7-.4,1.3-.7s1.1-.4,1.8-.6c.6-.1,1.3-.2,1.9-.3.6,0,1.1,0,1.6.2ZM377.6,47.6c0-.2,0-.6-.2-1.3-.1-.7-.3-1.6-.6-2.5-.3-1-.6-2-.9-3.1-.3-1.1-.7-2.1-1-3.1s-.6-1.7-.9-2.3c-.3-.6-.5-1-.6-1-.2,0-.5,0-.8,0-.3.1-.6.3-.9.5-.3.2-.6.4-.8.6-.2.2-.4.4-.4.5-.3.5-.4,1.2-.1,2,0,.2.3.9.6,2,.3,1.1.6,2.3,1,3.5.4,1.3.8,2.4,1.2,3.5.4,1.1.7,1.7,1,1.8.2.2.5.3.9.3.4,0,.7,0,1.1-.1.4-.1.7-.3.9-.5.3-.2.5-.4.5-.7Z"/>
        </g>
        <g class="st6">
          <path class="st5" d="M399.5,20.6c.1,0,.3.6.4,1.6.2,1,.3,2.2.5,3.8.2,1.5.4,3.3.5,5.2.2,1.9.3,3.9.5,5.9.2,2,.3,4,.4,5.9.1,1.9.2,3.6.3,5.1,0,1.5,0,2.7,0,3.6,0,.9,0,1.4-.2,1.4-.2,0-.5,0-.8-.2-.3-.2-.6-.4-.9-.6-.3-.3-.6-.5-.8-.8-.3-.3-.4-.5-.5-.7-.2-.4-.5-1-.9-1.9-.5-.9-1-2.1-1.5-3.5-.4-.9-.7-1.9-1.1-3-.3-.9-.7-1.8-1.1-2.9-.4-1.1-.8-2.2-1.2-3.2,0,.7,0,1.6.1,2.6,0,1,.1,2,.1,2.9,0,1.1,0,2.2,0,3.3,0,1.2,0,2.3.1,3.5s0,2.2,0,3.1c0,.9,0,1.7-.1,2.3,0,.6-.2.9-.3.9-.2.1-.4.1-.8,0-.3-.1-.6-.3-1-.5-.3-.2-.6-.5-.9-.8-.3-.3-.5-.6-.6-.8-1-2.5-1.8-4.8-2.6-6.9-.7-2-1.4-3.9-1.9-5.4-.5-1.6-1-3-1.4-4.1-.4-1.2-.7-2.2-1-3-.6-1.9-1-3.3-1.1-4.1,0-.6,0-1.2.3-1.9s.5-1.3.9-1.8c.3-.5.7-1,1-1.3.3-.3.6-.5.7-.5,0,0,.2.4.4,1,.2.7.5,1.5.8,2.6s.6,2.3,1,3.6c.4,1.4.7,2.8,1.1,4.3.4,1.5.8,3,1.2,4.5.4,1.5.8,2.9,1.1,4.2,0-1-.1-2.3-.2-3.7-.1-1.5-.2-2.9-.3-4.3,0-1.4-.2-2.7-.2-3.8,0-1.1,0-1.8,0-2.2.1-.7.3-1.3.6-1.9.3-.6.5-1,.8-1.4.3-.4.6-.7.8-.9.3-.2.4-.3.6-.3,0,0,.1.3.3.8.2.5.4,1.2.7,2.1.3.9.6,1.9,1,3,.4,1.1.8,2.3,1.2,3.5.4,1.2.8,2.4,1.2,3.5.4,1.2.8,2.2,1.2,3.2-.2-1.4-.5-2.9-.8-4.7-.3-1.7-.5-3.4-.8-5-.3-1.6-.5-3-.6-4.3-.2-1.2-.2-2-.2-2.4,0-.6.2-1.2.5-1.7.3-.6.7-1,1-1.5.4-.4.8-.8,1.1-1,.4-.2.6-.3.8-.2Z"/>
        </g>
        <g class="st6">
          <path class="st5" d="M409.5,54.4c0-.2-.2-.8-.3-1.9-.1-1.1-.3-2.4-.5-4.1-.2-1.6-.4-3.5-.6-5.5s-.4-4.1-.6-6.2c-.2-2.1-.4-4.2-.6-6.2-.2-2-.4-3.8-.5-5.4-.1-1.6-.3-2.9-.4-3.8,0-1-.1-1.5,0-1.6,0-.1.1-.5.3-1.1.2-.6.5-1.2.7-1.9s.6-1.2.9-1.8c.3-.5.6-.8.9-.8.1,0,.3.7.5,2,.3,1.3.6,3,.9,5.1.4,2.1.7,4.4,1.1,6.9.4,2.5.7,5,1.1,7.3.4,2.4.7,4.5,1,6.4.3,1.9.5,3.3.6,4.2,1.1,0,2.3,0,3.4-.2,1.1,0,2.2-.1,3.1-.2.9,0,1.7,0,2.2,0,.6,0,.9,0,.9,0,.1.1.3.4.6.9.3.5.5,1,.8,1.5s.4,1.1.6,1.5c.1.5.2.8,0,.9-3.9,1.2-6.9,2.1-9.1,2.6-2.2.5-3.8.9-4.8,1-1.2.2-2,.1-2.2,0Z"/>
        </g>
      </g>
    </g>
  </g>
</svg>