<?xml version="1.0" encoding="UTF-8"?>
<svg xmlns="http://www.w3.org/2000/svg" width="173.151" height="88.244" version="1.1" viewBox="0 0 173.151 88.244">
  <!-- Generator: Adobe Illustrator 29.0.1, SVG Export Plug-In . SVG Version: 2.1.0 Build 192)  -->
  <defs>
    <style>
      .st0 {
        fill: #f6aa59;
      }

      .st1 {
        fill: #231f20;
      }

      .st2 {
        fill: #f78f20;
      }

      .st3 {
        fill: #b86c29;
      }

      .st4 {
        fill: #e9eea9;
        mix-blend-mode: screen;
      }

      .st5 {
        isolation: isolate;
      }

      .st6 {
        fill: #bfd732;
      }
    </style>
  </defs>
  <g class="st5">
    <g id="Layer_1">
      <g>
        <path class="st1" d="M17.544,29.397c-5.592-2.124-11.774-3.46-17.544-1.882,11.927,3.438,19.81,17.172,16.763,29.205,3.641-1.391,7.881.352,10.541,3.2,2.66,2.849,4.082,6.605,5.442,10.257,4.351-.975,8.96.614,12.564,3.24,3.603,2.627,6.378,6.208,9.095,9.743,1.656,2.154,3.547,4.463,6.215,4.98,4.028.782,7.623-3.013,8.816-6.939,1.192-3.926.888-8.175,1.975-12.132,1.398-5.089,5.192-9.465,10.032-11.569-2.988-8.21,2.486-18.414,10.978-20.466-1.616-14.428,6.758-29.44,19.884-35.644-5.303-2.184-11.373-1.522-16.871.112-12.771,3.796-23.906,12.813-30.276,24.515-3.946,7.249-6.034,15.476-6.16,23.722-.038,2.465,1.18,18.487,2.709,19.585-1.878-1.363-4.745-1.498-6.169.442-4.982-8.028-7.271-17.072-13.943-24.171-6.673-7.101-14.932-12.735-24.051-16.198Z"/>
        <path class="st6" d="M57.521,77.66c-.957-.288-1.194-1.73-1.002-2.53.877.869,1.989.828,2.92,1.532-.365.412-1.305,1.182-1.918.998Z"/>
        <path class="st6" d="M64.169,74.692c.658,2.233-2.325,1.184-2.497,1.553.424-.909.772-1.978,1.202-2.875.57.243,1.116.713,1.296,1.322Z"/>
      </g>
      <g>
        <path class="st6" d="M61.957,33.003c.025.327-.022.83-.156,1.501-.133.671-.327,1.336-.579,1.993-.252.657-.579,1.214-.979,1.668-.401.454-.854.641-1.359.558-.356-.059-.646-.393-.868-1-.223-.605-.387-1.299-.49-2.078-.104-.778-.186-1.545-.245-2.3-.06-.754-.089-1.344-.178-1.596-.054-.152-.261-.345-.513-.537-.252-.191-.498-.317-.735-.376-.238-.059-.505.065-.802.369-.297.305-.586.667-.868,1.087-.283.42-.52.85-.713,1.293-.193.442-.259.8-.245,1.033.01.167.193.556.579,1.122.386.566.869,1.237,1.448,2.001.579.764,1.203,1.57,1.871,2.41.668.84,1.285,1.651,1.849,2.44.564.789,1.046,1.516,1.447,2.19.401.673.619,1.232.646,1.678.032.534-.111,1.207-.423,2.001-.312.795-.706,1.546-1.181,2.247-.475.702-.98,1.285-1.514,1.747-.535.463-1.01.658-1.425.592-.417-.066-1.018-.441-1.804-1.154-.787-.713-1.574-1.544-2.361-2.495-.787-.95-1.485-1.891-2.093-2.805-.609-.914-.955-1.559-1.047-1.893-.084-.306-.141-.689-.156-1.142-.015-.453,0-.891.044-1.316.045-.424.127-.766.245-1.022.118-.257.267-.346.445-.266s.535.542,1.069,1.369c.534.827,1.113,1.732,1.737,2.707.624.976,1.232,1.854,1.826,2.636.594.783,1.024,1.198,1.292,1.266.148.038.312-.033.49-.213.178-.18.341-.402.49-.665.148-.263.275-.541.378-.83.104-.289.165-.533.156-.702-.014-.26-.267-.707-.712-1.315-.446-.607-1.01-1.31-1.693-2.125-.683-.815-1.425-1.705-2.227-2.685-.802-.978-1.544-1.931-2.227-2.844-.684-.914-1.247-1.74-1.692-2.461-.445-.72-.684-1.23-.713-1.512-.03-.282.06-.66.268-1.135.207-.475.475-.982.802-1.526.326-.544.705-1.092,1.136-1.648.43-.556.868-1.06,1.314-1.511.445-.451.883-.804,1.314-1.056.43-.253.809-.332,1.136-.231.653.201,1.432.6,2.338,1.171.905.572,1.774,1.181,2.605,1.837.831.657,1.544,1.289,2.138,1.918.594.629.901,1.162.936,1.605Z"/>
        <path class="st6" d="M74.339,27.183c.297.134.587.409.869.824.282.415.542.907.779,1.475.238.569.43,1.189.579,1.86.148.672.223,1.319.223,1.942,0,.654-.111,1.572-.334,2.754-.223,1.182-.483,2.378-.779,3.585-.297,1.207-.579,2.292-.846,3.253-.268.962-.445,1.538-.535,1.729-.178.71-.415,1.265-.712,1.572-.27.279-.69.502-1.181.664-.49.163-.987.284-1.492.362-.505.079-.995.112-1.47.101-.475-.011-.846-.057-1.114-.133-.03.002-.133-.022-.312-.074,0,1.188-.012,2.409-.044,3.654-.028,1.068-.06,2.267-.089,3.589-.03,1.322.056,2.793-.089,3.99-.03.248-.171.586-.334.948-.164.362-.364.702-.602,1.019-.238.317-.483.581-.735.791-.252.209-.483.283-.69.223-.119-.031-.245-.544-.378-1.541-.134-.997-.268-2.306-.401-3.928-.134-1.621-.275-3.473-.423-5.557-.149-2.083-.283-4.211-.401-6.384-.119-2.173-.216-4.308-.29-6.405-.074-2.097-.133-3.971-.178-5.621-.044-1.65-.052-3.002-.022-4.054.029-1.052.119-1.619.223-1.704.088-.072.267-.069.535.045.267.114.571.301.913.559.341.258.697.572,1.069.941.371.369.705.771,1.002,1.208,1.455-.692,2.835-1.251,4.143-1.652,1.306-.4,2.345-.425,3.118-.035ZM72.469,33.983c0-.475-.067-.934-.2-1.379-.134-.444-.305-.826-.512-1.144-.207-.318-.423-.563-.646-.734-.223-.171-.423-.219-.602-.143-.743.244-1.366.495-1.871.761-.267.134-.49.278-.668.435.059.948.096,2.245.111,3.892.015,1.648.022,3.451.022,5.411,0,.861.056,1.459.089,1.733.079.65.208,1.193.534,1.442.089.084.223.172.401.265.178.092.372.168.579.226.207.058.416.086.624.083.208-.003.386-.072.535-.205.029-.032.096-.313.201-.843.104-.529.215-1.18.334-1.949.118-.769.245-1.599.378-2.49.134-.89.252-1.721.356-2.49.104-.769.185-1.425.245-1.966.059-.542.089-.842.089-.902Z"/>
        <path class="st6" d="M88.325,27.03c.208.126.408.417.601.872.193.456.364,1.022.513,1.696.148.675.282,1.414.401,2.214.119.801.223,1.591.312,2.37.089.779.156,1.512.201,2.198.044.686.084,1.251.111,1.686.032.523.051,1.078.066,1.653.015.575.015,1.125,0,1.648-.015.523-.044.999-.089,1.425-.044.427-.111.756-.2.987-.178.491-.483.873-.914,1.146-.431.273-.913.507-1.447.701-.268.097-.721.219-1.358.363-.639.144-1.322.283-2.049.414s-1.418.242-2.071.332c-.654.091-1.144.14-1.47.151-.653-.006-1.121-.101-1.403-.28-.283-.179-.557-.465-.824-.857-.089-.161-.164-.598-.223-1.314-.06-.716-.097-1.585-.111-2.606-.015-1.021-.008-2.129.022-3.323.029-1.193.082-2.332.156-3.416.074-1.083.163-2.037.267-2.859s.245-1.386.423-1.689c.296-.476.809-.968,1.537-1.482.728-.515,1.388-.946,1.982-1.292.297-.158.69-.317,1.181-.478.49-.162,1.009-.287,1.559-.378.549-.091,1.076-.133,1.582-.126.504.007.92.088,1.247.242ZM85.831,41.463c.059-.133.126-.514.2-1.141.074-.627.134-1.376.178-2.249.044-.872.074-1.8.089-2.783.015-.984.022-1.891.022-2.723s-.03-1.529-.089-2.094c-.06-.564-.134-.88-.223-.947-.149-.082-.364-.081-.646.003-.283.085-.572.2-.869.345-.297.146-.564.299-.802.459-.238.161-.401.295-.49.405-.386.418-.609,1.014-.624,1.748-.004.204-.022.8-.067,1.775-.045.976-.067,2.02-.067,3.134s.022,2.14.067,3.08c.044.94.142,1.498.29,1.67.148.173.363.28.646.317.282.038.579.019.891-.056.312-.075.608-.199.891-.372.282-.172.482-.363.602-.571Z"/>
        <path class="st6" d="M102.49,23.696c.208.139.408.444.601.913.193.47.364,1.049.513,1.734.148.686.282,1.437.401,2.247.119.811.223,1.61.312,2.397.089.787.156,1.526.201,2.216.044.69.084,1.259.111,1.697.032.525.051,1.083.066,1.659.015.577.015,1.127,0,1.648-.015.522-.044.995-.089,1.417-.044.423-.111.746-.2.969-.178.475-.483.831-.914,1.07-.431.24-.913.44-1.447.602-.268.081-.721.177-1.358.293-.639.117-1.322.234-2.049.352-.728.118-1.418.226-2.071.321-.654.096-1.144.155-1.47.175-.653.011-1.121-.065-1.403-.233-.283-.167-.557-.44-.824-.818-.089-.156-.164-.589-.223-1.302-.06-.713-.097-1.579-.111-2.6-.015-1.021-.008-2.128.022-3.324.029-1.195.082-2.337.156-3.425.074-1.087.163-2.045.267-2.873s.245-1.398.423-1.71c.296-.49.809-1.004,1.537-1.539.728-.534,1.388-.974,1.982-1.322.297-.159.69-.317,1.181-.473.49-.156,1.009-.272,1.559-.345.549-.074,1.076-.095,1.582-.062.504.032.92.138,1.247.314ZM99.996,38.005c.059-.131.126-.509.2-1.134.074-.624.134-1.371.178-2.243.044-.87.074-1.797.089-2.78.015-.983.022-1.89.022-2.722s-.03-1.53-.089-2.097c-.06-.567-.134-.885-.223-.955-.149-.087-.364-.094-.646-.018-.283.077-.572.185-.869.325-.297.141-.564.29-.802.448-.238.159-.401.293-.49.402-.386.417-.609,1.015-.624,1.749-.004.204-.022.8-.067,1.775-.045.976-.067,2.02-.067,3.134s.022,2.14.067,3.08c.044.94.142,1.497.29,1.669.148.173.363.279.646.318.282.039.579.024.891-.046.312-.07.608-.187.891-.353.282-.165.482-.349.602-.552Z"/>
        <path class="st6" d="M113.848,31.364c.237.414.602,1.034,1.091,1.871.49.837,1.017,1.772,1.581,2.807.564,1.036,1.143,2.113,1.737,3.234.594,1.121,1.113,2.159,1.559,3.106.445.947.794,1.741,1.046,2.373.252.633.334.974.245,1.018-.149.066-.372.068-.668.01-.297-.057-.609-.142-.936-.255-.327-.112-.631-.249-.913-.41-.283-.161-.483-.303-.601-.431-1.01-1.447-1.909-2.746-2.695-3.919-.787-1.173-1.477-2.18-2.071-3.023-.679-.963-1.292-1.841-1.826-2.641-.089,1.402-.178,2.728-.267,3.981-.089,1.253-.178,2.366-.268,3.336-.089.971-.186,1.75-.29,2.337-.104.586-.206.91-.29.935-.211.064-.49-.027-.757-.225-.268-.198-.52-.456-.757-.772-.237-.316-.453-.649-.646-.998-.193-.349-.305-.655-.334-.918-.178-2.68-.319-5.09-.423-7.231-.104-2.139-.193-4.035-.267-5.689-.074-1.653-.119-3.094-.134-4.325-.015-1.229-.022-2.275-.022-3.137,0-2.049.046-3.486.178-4.255.103-.599.393-1.216.824-1.817.43-.599.898-1.132,1.403-1.596.504-.463.98-.814,1.425-1.053.445-.239.755-.318.891-.234.116.072.193.599.223,1.548.029.949.037,2.158.022,3.629-.015,1.471-.052,3.114-.111,4.927-.06,1.815-.119,3.629-.178,5.444.535-.831,1.054-1.66,1.559-2.49.504-.829.98-1.576,1.425-2.242.445-.667.838-1.215,1.18-1.65.341-.435.609-.689.78-.772.204-.099.541-.189,1.002-.23.46-.041.928-.053,1.403-.033.475.02.913.089,1.314.204.401.115.64.284.735.42.07.1-.075.439-.49,1.017-.416.579-.965,1.285-1.648,2.135-.684.851-1.47,1.797-2.361,2.854-.891,1.058-1.781,2.112-2.672,3.162Z"/>
        <path class="st6" d="M131.753,25.78c.089.104.163.526.223,1.269.059.743.111,1.697.156,2.862.045,1.166.067,2.477.067,3.931v4.499c0,1.544-.007,3.063-.022,4.555-.016,1.492-.045,2.843-.089,4.052-.044,1.21-.089,2.234-.133,3.073-.045.838-.09,1.376-.156,1.57-.049.144-.23.338-.512.575-.282.236-.617.46-1.002.676-.385.215-.78.398-1.181.549-.401.151-.735.225-1.002.216-.535-.019-1.129-.253-1.782-.694-.653-.442-1.27-.925-1.849-1.458-.579-.534-1.084-1.057-1.514-1.577-.431-.521-.69-.874-.779-1.069-.089-.195-.171-.471-.245-.825-.075-.355-.126-.706-.156-1.052-.029-.346-.022-.642.022-.887.044-.244.141-.354.29-.326.118.022.438.214.958.592s1.076.783,1.67,1.221c.594.438,1.143.828,1.648,1.164.505.336.828.426.936.261.121-.184.237-.801.356-1.814.118-1.012.237-2.254.356-3.724-1.04-.024-1.982-.085-2.829-.215s-1.552-.434-2.116-.941c-.267-.235-.542-.603-.824-1.102-.282-.499-.534-1.056-.757-1.673s-.409-1.27-.557-1.961c-.149-.691-.223-1.333-.223-1.927,0-.416.052-1.002.156-1.758.104-.756.245-1.58.423-2.471s.363-1.81.557-2.755c.193-.945.386-1.8.579-2.564.193-.764.356-1.405.49-1.927.133-.521.215-.808.245-.861.06-.076.208-.096.446-.057.237.04.49.115.757.227.268.112.52.26.757.444.237.184.399.368.445.526.035.118.037.501.022,1.12-.015.619-.06,1.349-.134,2.189-.074.84-.149,1.747-.223,2.721-.074.975-.149,1.89-.223,2.745-.074.856-.141,1.588-.2,2.196-.06.608-.089.972-.089,1.09,0,.476.052.942.156,1.4.104.458.238.866.401,1.223.163.357.334.651.513.882.178.231.341.34.49.326.504.067.964.103,1.381.101.208-.015.401-.034.579-.057.089-1.421.178-2.88.267-4.376.089-1.495.163-2.87.223-4.123.059-1.253.111-2.317.156-3.191.045-.873.067-1.428.067-1.666,0-.267.118-.525.356-.77.237-.244.504-.437.802-.575.296-.138.601-.201.913-.189.312.012.557.124.735.331Z"/>
      </g>
      <g>
        <path class="st6" d="M88.632,79.041c-.416-1.515-.876-3.296-1.381-5.345-.416-1.752-.913-3.883-1.492-6.392-.579-2.51-1.195-5.382-1.848-8.619,0-.207.126-.468.378-.779.252-.312.557-.608.913-.891s.728-.52,1.114-.713c.385-.193.727-.29,1.024-.29.118.179.326.966.624,2.361.118.594.26,1.344.423,2.249.163.906.349,2.026.557,3.363.208,1.336.438,2.902.69,4.699.252,1.797.542,3.867.868,6.213.238-1.604.468-3.118.69-4.543.223-1.426.423-2.688.601-3.786.208-1.276.401-2.465.579-3.563.089-.683.193-1.403.312-2.16.119-.757.245-1.447.379-2.071.134-.623.282-1.15.445-1.581.163-.43.334-.646.513-.646.178,0,.445.037.802.111s.72.171,1.091.289c.371.119.705.261,1.002.423.297.164.446.335.446.513,0,.089-.09.527-.268,1.313-.179.787-.416,1.79-.713,3.007-.297,1.218-.639,2.591-1.024,4.12-.386,1.53-.779,3.081-1.181,4.654-.4,1.574-.809,3.118-1.225,4.633s-.795,2.858-1.136,4.031c-.341,1.173-.631,2.123-.868,2.851-.238.728-.401,1.091-.49,1.091-.089,0-.334-.407-.735-1.225-.401-.816-.765-1.922-1.091-3.318Z"/>
        <path class="st6" d="M102.707,58.241c.118.238.17.564.155.979-.015.416-.066.847-.155,1.292s-.208.876-.356,1.292c-.149.416-.297.742-.445.979-.297.416-.735.676-1.314.779-.579.104-1.002.127-1.27.067-.208-.029-.416-.171-.623-.424-.208-.252-.387-.563-.534-.935-.149-.371-.253-.78-.312-1.226s-.044-.86.045-1.247c.089-.386.371-.734.846-1.047.476-.312.98-.549,1.515-.712.535-.163,1.039-.237,1.515-.223.475.015.786.155.936.423ZM102.484,65.456c.059.148.096.616.111,1.402.015.787.015,1.737,0,2.852-.016,1.113-.053,2.301-.111,3.562-.061,1.263-.127,2.45-.2,3.563-.075,1.113-.156,2.064-.245,2.851-.09.787-.179,1.255-.268,1.403-.268.416-.668.676-1.202.779-.535.104-.921.127-1.158.067-.119,0-.245-.342-.379-1.024-.134-.684-.261-1.544-.379-2.584-.119-1.039-.223-2.167-.312-3.385s-.163-2.383-.223-3.497c-.06-1.113-.089-2.085-.089-2.917s.029-1.365.089-1.604c.089-.386.349-.728.779-1.024s.891-.52,1.381-.668.95-.216,1.381-.201c.43.016.705.156.824.424Z"/>
        <path class="st6" d="M116.693,61.046c.296.179.601.498.913.958.312.461.594,1.002.846,1.626.252.623.452,1.284.602,1.981.148.698.223,1.359.223,1.982,0,.445-.052,1.062-.156,1.849-.104.787-.244,1.647-.423,2.583-.178.936-.371,1.901-.579,2.896-.208.995-.408,1.908-.602,2.739-.193.832-.363,1.537-.512,2.116-.149.578-.253.928-.312,1.046-.149.356-.275.661-.379.913-.104.253-.23.438-.379.558-.327.237-.742.408-1.247.512-.505.104-1.024.171-1.559.2-.535.03-1.047.022-1.537-.022-.489-.044-.868-.111-1.136-.2-.119-.029-.245-.066-.379-.111-.133-.044-.274-.096-.423-.155-.297.505-.639.957-1.024,1.358-.386.4-.742.571-1.069.512-.118-.029-.244-.519-.378-1.47-.134-.95-.275-2.205-.424-3.764s-.297-3.333-.445-5.322-.282-4.031-.4-6.125c-.119-2.094-.223-4.149-.312-6.169-.09-2.019-.156-3.823-.201-5.412-.044-1.588-.052-2.895-.021-3.919.029-1.024.104-1.582.223-1.671.118-.089.393-.022.823.2.431.224.898.55,1.403.98s.973.943,1.403,1.536c.43.595.72,1.203.868,1.827.09.475.156,1.291.201,2.449.044,1.158.066,2.524.066,4.098,1.307-.504,2.517-.831,3.63-.979s2.012-.015,2.695.4ZM114.777,67.594c0-.475-.074-.942-.223-1.403-.148-.46-.327-.86-.534-1.202-.208-.341-.431-.602-.668-.779-.238-.179-.445-.237-.624-.179-.327.06-.639.142-.936.245-.297.104-.55.2-.757.29-.268.118-.49.223-.668.312-.03,1.752-.066,3.534-.111,5.345-.045,1.812-.066,3.504-.066,5.078,0,.772.014,1.447.044,2.026.029.579.045.943.045,1.091.089.713.281,1.219.579,1.515.089.06.229.142.423.245.192.104.4.193.624.268.223.074.438.119.646.134.207.015.386-.037.534-.156.029-.029.097-.363.2-1.002.104-.639.216-1.418.335-2.339.118-.92.244-1.922.378-3.007.134-1.083.26-2.093.379-3.028.118-.936.215-1.729.289-2.383s.111-1.01.111-1.069Z"/>
        <path class="st6" d="M134.465,72.45c-.029.06-.386.178-1.068.355-.684.179-1.5.364-2.45.558s-1.96.386-3.028.579c-1.069.193-1.99.349-2.762.467.147,1.188.326,2.25.534,3.186.207.935.386,1.521.534,1.759.148.208.342.401.579.579.208.149.468.29.779.423.312.134.69.23,1.137.29.326.089.638-.029.935-.356.237-.297.453-.816.646-1.559.192-.742.289-1.916.289-3.52.92-.147,1.641-.237,2.16-.267s.898-.029,1.136,0c.297.029.475.074.535.134.029.089.029.312,0,.668-.03.356-.097.795-.201,1.313-.104.521-.223,1.085-.355,1.692-.134.609-.29,1.188-.468,1.737-.179.55-.372,1.04-.579,1.47-.208.432-.431.735-.668.913-.713.535-1.604.795-2.673.78s-2.123-.163-3.162-.445c-1.04-.282-1.976-.624-2.807-1.025-.832-.4-1.352-.734-1.559-1.002-.149-.178-.283-.63-.401-1.358-.119-.728-.216-1.61-.289-2.65-.074-1.039-.127-2.183-.156-3.43-.03-1.247-.008-2.464.067-3.652.073-1.188.192-2.286.355-3.296.163-1.009.394-1.826.69-2.45.445-.891,1.173-1.617,2.183-2.182s2.078-.95,3.207-1.158c1.128-.208,2.205-.237,3.229-.09,1.024.149,1.789.476,2.294.98.297.297.563.884.802,1.76.237.876.386,1.938.445,3.185,0,.119.015.46.045,1.024.029.564.051,1.165.066,1.804.015.639.022,1.24.022,1.804s-.016.891-.045.98ZM124.8,71.737c.475-.179,1.017-.379,1.626-.602.607-.223,1.194-.43,1.759-.623.563-.193,1.069-.363,1.515-.513.445-.148.771-.268.979-.356-.029-.326-.066-.705-.111-1.136-.044-.43-.097-.847-.155-1.247-.061-.401-.134-.75-.223-1.047-.09-.296-.179-.475-.268-.534-.238-.089-.631-.171-1.181-.245s-1.113-.052-1.692.066c-.579.119-1.106.342-1.581.669-.476.326-.742.846-.802,1.559-.06.476-.074,1.069-.045,1.781.029.713.09,1.455.179,2.228Z"/>
        <path class="st6" d="M150.277,62.695c.028.327-.022.832-.156,1.515s-.327,1.366-.579,2.049c-.253.684-.579,1.276-.979,1.781-.401.506-.854.758-1.359.758-.355,0-.646-.282-.868-.847-.223-.563-.387-1.225-.49-1.982-.104-.757-.186-1.507-.245-2.249s-.118-1.262-.178-1.559c-.089-.148-.261-.29-.513-.424s-.497-.2-.734-.2-.505.193-.802.579-.587.832-.868,1.336c-.283.506-.521,1.01-.713,1.515-.193.505-.275.876-.245,1.113,0,.179.192.49.579.936.386.445.868.973,1.447,1.581.579.609,1.203,1.263,1.871,1.96.668.698,1.284,1.396,1.849,2.094.563.698,1.046,1.358,1.447,1.982.4.623.616,1.157.646,1.603.029.535-.111,1.219-.423,2.05s-.706,1.633-1.181,2.405-.979,1.44-1.514,2.004c-.535.564-1.01.861-1.426.891-.416.03-1.018-.2-1.804-.69-.787-.489-1.574-1.068-2.361-1.737-.787-.668-1.484-1.328-2.093-1.981-.609-.653-.958-1.128-1.047-1.426-.089-.267-.142-.623-.156-1.068-.015-.446,0-.892.045-1.337s.126-.824.245-1.136c.118-.312.267-.468.445-.468.178,0,.534.305,1.069.913.534.609,1.113,1.292,1.736,2.049.624.758,1.232,1.441,1.826,2.049.594.609,1.024.913,1.292.913.148,0,.312-.111.49-.334.178-.223.341-.481.49-.779.147-.296.273-.602.378-.913.104-.312.156-.557.156-.734-.03-.268-.268-.653-.713-1.158s-1.01-1.069-1.692-1.692c-.684-.624-1.426-1.284-2.228-1.982-.802-.697-1.544-1.358-2.227-1.982-.684-.623-1.247-1.188-1.692-1.692s-.684-.891-.713-1.158c-.03-.267.059-.69.268-1.27.207-.579.475-1.217.802-1.915.326-.697.704-1.418,1.136-2.16.43-.742.868-1.426,1.313-2.049.445-.624.883-1.136,1.314-1.537.43-.4.809-.601,1.136-.601.652,0,1.432.178,2.338.534.905.356,1.774.795,2.605,1.313.831.521,1.544,1.062,2.139,1.626.594.564.905,1.069.936,1.515Z"/>
        <path class="st6" d="M157.493,51.915c.059.179.081.869.066,2.071-.016,1.203-.06,2.673-.134,4.409-.074,1.737-.171,3.594-.289,5.568-.119,1.975-.245,3.83-.379,5.567s-.268,3.207-.4,4.41c-.134,1.202-.261,1.893-.379,2.07-.297.476-.743.751-1.336.824-.595.074-1.04.082-1.337.022-.089-.029-.178-.356-.267-.979-.09-.624-.172-1.455-.245-2.495-.075-1.039-.142-2.227-.201-3.562-.06-1.337-.104-2.71-.133-4.12-.03-1.41-.061-2.807-.09-4.188s-.044-2.635-.044-3.764.015-2.078.044-2.851c.029-.771.074-1.262.134-1.47.118-.416.416-.786.891-1.113s.995-.571,1.56-.735c.563-.163,1.091-.223,1.581-.178.49.044.809.216.958.512ZM156.735,79.977c.118.208.171.497.156.868-.016.372-.06.758-.134,1.158-.074.401-.178.787-.312,1.158s-.275.676-.424.913c-.118.178-.282.327-.489.445-.208.118-.431.2-.668.245-.238.044-.461.066-.669.066h-.489c-.179-.029-.364-.163-.557-.4-.194-.237-.356-.527-.49-.869-.134-.341-.23-.712-.29-1.113-.06-.4-.044-.779.045-1.136.089-.326.341-.631.757-.913s.869-.497,1.358-.646c.49-.148.95-.216,1.381-.201.431.016.705.156.824.424Z"/>
      </g>
      <g>
        <path class="st4" d="M36.064,4.862c-.032-.049-.085-.098-.158-.146s-.159-.089-.257-.122c-.098-.032-.191-.044-.28-.037-.09.008-.159.045-.208.11-.049.082-.134.387-.256.916-.122.529-.249,1.184-.379,1.965s-.244,1.652-.342,2.612c-.098.96-.146,1.913-.146,2.856,0,.684.024,1.396.073,2.136.049.741.11,1.42.184,2.039.073.619.162,1.127.269,1.526.105.399.215.598.329.598.114.017.269-.105.464-.366.195-.26.383-.557.562-.891.179-.333.346-.659.501-.977.154-.317.256-.533.305-.647.065-.179.154-.378.269-.598s.228-.423.342-.61c.114-.187.228-.342.342-.464s.212-.183.293-.183c.098,0,.184.098.257.293s.13.427.171.696c.04.269.068.545.085.83.017.285.024.517.024.696,0,.326-.061.732-.183,1.221s-.277.96-.464,1.416c-.188.456-.391.847-.61,1.172s-.428.48-.623.464c-.195-.017-.509-.13-.939-.342-.432-.211-.875-.456-1.331-.732-.456-.276-.871-.553-1.245-.83-.374-.276-.594-.496-.659-.659-.081-.146-.199-.5-.354-1.062-.155-.562-.313-1.241-.477-2.039-.163-.797-.305-1.676-.427-2.637-.122-.96-.184-1.929-.184-2.905s.008-1.941.024-2.893.053-1.802.11-2.551c.057-.749.15-1.355.28-1.819s.31-.712.537-.745c.456-.049.952-.02,1.489.085.537.106,1.074.265,1.611.476.537.212,1.054.452,1.551.72.496.269.939.545,1.33.83.391.285.704.558.94.818.235.261.361.48.378.659.017.277-.017.586-.098.928s-.179.671-.293.989-.231.603-.354.854c-.122.252-.216.427-.281.525-.081.114-.179.236-.293.366-.114.13-.231.244-.354.342s-.244.167-.366.208c-.122.041-.232.021-.33-.061-.065-.049-.126-.203-.183-.464-.058-.26-.114-.569-.171-.928-.058-.358-.11-.745-.159-1.16s-.094-.801-.134-1.16c-.041-.358-.078-.659-.11-.903s-.057-.382-.073-.415Z"/>
        <path class="st4" d="M42.544,20.755c-.114.033-.244-.008-.391-.122-.146-.114-.289-.256-.427-.427-.139-.171-.257-.354-.354-.549s-.163-.358-.195-.488c-.114-1.432-.207-2.714-.28-3.845-.073-1.131-.135-2.136-.184-3.015s-.085-1.64-.109-2.283c-.024-.643-.037-1.192-.037-1.648-.017-1.058,0-1.79.049-2.197.049-.293.184-.586.403-.879s.455-.545.708-.757c.252-.211.488-.374.708-.488.22-.114.361-.146.427-.098s.114.322.146.818c.032.497.057,1.144.073,1.941.017.798.021,1.693.013,2.686-.009.993-.024,2.01-.049,3.052-.024,1.042-.054,2.059-.086,3.052-.032.993-.073,1.876-.122,2.649-.049.773-.098,1.396-.146,1.868-.049.472-.098.716-.146.732Z"/>
        <path class="st4" d="M47.95,6.449c.064.13.093.31.085.537-.008.228-.036.464-.085.708s-.114.48-.195.708c-.082.228-.163.407-.244.537-.163.228-.403.371-.721.427-.317.057-.549.069-.695.037-.114-.016-.229-.093-.342-.232-.114-.138-.212-.309-.293-.513-.082-.203-.139-.427-.171-.671-.033-.244-.024-.472.024-.684.049-.211.203-.403.464-.574.26-.171.537-.301.83-.391.293-.089.569-.13.83-.122.26.008.431.085.513.232ZM47.828,10.404c.032.082.053.338.061.769.008.432.008.952,0,1.562s-.028,1.262-.061,1.953c-.033.692-.069,1.343-.11,1.953s-.085,1.131-.134,1.562c-.049.432-.098.688-.146.769-.146.228-.366.371-.659.427-.293.057-.505.069-.635.037-.065,0-.135-.187-.208-.562-.073-.374-.143-.846-.207-1.416-.065-.569-.122-1.188-.171-1.855-.049-.667-.09-1.306-.122-1.917-.033-.61-.049-1.143-.049-1.599s.016-.749.049-.879c.049-.211.19-.398.427-.562.236-.163.488-.285.757-.366.269-.081.521-.118.757-.11.236.008.387.085.452.232Z"/>
        <path class="st4" d="M54.063,7.547c-.065-.065-.204-.13-.415-.195-.212-.065-.358-.041-.439.073-.049.065-.131.277-.244.635-.114.358-.232.814-.354,1.367-.122.554-.228,1.188-.317,1.904-.09.716-.134,1.457-.134,2.222,0,.554.024,1.079.073,1.575.049.497.109.932.183,1.306.073.375.163.676.269.903.105.228.216.35.33.366.098,0,.215-.114.354-.342.139-.228.276-.492.415-.793.139-.301.261-.586.366-.854s.184-.443.232-.525c.13-.211.301-.395.513-.549.211-.154.391-.232.537-.232.081,0,.142.057.183.171.041.114.073.249.098.403.024.155.037.313.037.476v.391c0,.179-.033.513-.098,1.001-.065.488-.159.985-.281,1.489-.122.505-.261.952-.415,1.343s-.321.578-.5.562c-.18-.016-.448-.098-.806-.244-.358-.146-.721-.317-1.087-.513s-.7-.395-1.001-.598c-.301-.203-.484-.362-.549-.476-.065-.114-.163-.395-.293-.842-.131-.447-.265-.997-.403-1.648-.139-.651-.256-1.367-.354-2.148s-.146-1.562-.146-2.344.02-1.554.061-2.319c.041-.765.11-1.448.208-2.051.098-.602.224-1.09.378-1.465.154-.374.346-.569.574-.586.635-.065,1.273-.012,1.916.159s1.221.399,1.733.684c.513.285.932.586,1.258.903.325.317.496.582.513.793.016.228.004.545-.037.952-.041.407-.098.818-.171,1.233s-.154.79-.244,1.123c-.09.334-.167.525-.231.574-.146.146-.317.301-.513.464-.195.163-.383.195-.562.098-.065-.032-.122-.159-.171-.378s-.094-.492-.135-.818c-.041-.325-.077-.675-.109-1.05-.033-.374-.062-.72-.086-1.038s-.049-.586-.073-.806-.045-.337-.061-.354Z"/>
        <path class="st4" d="M61.69,12.43c.13.228.33.57.599,1.025.269.456.557.96.866,1.514.31.554.627,1.123.952,1.709s.61,1.123.854,1.611.436.896.574,1.221c.138.326.183.505.134.537-.081.049-.203.069-.366.061-.163-.008-.334-.032-.513-.073-.179-.041-.346-.098-.5-.171-.155-.073-.265-.142-.33-.208-.554-.749-1.046-1.44-1.477-2.075-.432-.635-.811-1.188-1.136-1.66-.374-.537-.708-1.033-1.001-1.489-.049.765-.098,1.489-.146,2.173s-.098,1.29-.146,1.819c-.049.529-.102.952-.158,1.27-.058.317-.11.484-.159.5-.13.017-.269-.037-.415-.159s-.285-.276-.415-.464c-.13-.187-.248-.382-.354-.586-.106-.203-.167-.378-.184-.525-.098-1.481-.175-2.812-.231-3.992-.058-1.18-.106-2.226-.146-3.137-.041-.911-.065-1.705-.073-2.38-.009-.675-.013-1.249-.013-1.721,0-1.123.032-1.896.098-2.319.065-.325.216-.639.452-.94.235-.301.492-.565.769-.793.276-.228.537-.398.781-.513.244-.114.407-.146.488-.098.065.049.105.334.122.854.017.521.021,1.184.013,1.99-.009.806-.029,1.705-.062,2.698-.032.993-.065,1.986-.098,2.979.293-.439.578-.883.854-1.331.276-.447.537-.854.781-1.221s.46-.671.647-.916c.187-.244.329-.391.427-.439.114-.065.297-.118.55-.159.252-.041.508-.069.769-.085.261-.016.501-.008.721.024.22.033.354.09.402.171.049.049-.041.249-.269.598-.228.35-.529.777-.903,1.282-.374.505-.806,1.058-1.294,1.66-.488.603-.977,1.188-1.465,1.758Z"/>
        <path class="st4" d="M77.506,4.642c.081.179.154.399.22.659.065.261.11.517.135.769.024.252.028.468.012.647-.017.179-.073.277-.171.293-.098,0-.301-.102-.61-.305-.31-.203-.643-.407-1.001-.61-.358-.203-.691-.366-1.001-.488s-.496-.093-.562.085c-.049.13-.081.35-.098.659-.017.31-.028.688-.036,1.135-.009.448-.009.952,0,1.514.008.562.02,1.152.036,1.77.488-.049.924-.081,1.307-.098.382-.016.63-.008.744.024.146.049.265.175.354.378.089.204.146.427.171.671s.016.472-.024.684c-.041.212-.118.35-.232.415-.081.049-.338.082-.769.098-.432.017-.924.017-1.478,0,.032.83.069,1.648.11,2.454.04.806.077,1.542.109,2.209.032.667.062,1.241.086,1.721.024.48.036.818.036,1.013,0,.244-.069.354-.207.33-.139-.024-.306-.13-.501-.317-.195-.187-.402-.427-.622-.72s-.403-.586-.55-.879c-.081-.146-.154-.407-.22-.781-.065-.374-.13-.826-.195-1.355-.065-.529-.13-1.119-.195-1.77-.065-.651-.122-1.326-.171-2.026-.325-.032-.606-.065-.842-.098-.236-.032-.379-.065-.428-.098-.081-.065-.134-.15-.158-.256-.024-.105-.041-.215-.049-.33-.009-.114-.009-.224,0-.33.008-.105.02-.191.036-.256.032-.049.167-.105.403-.171.235-.065.541-.13.915-.195-.049-.618-.085-1.221-.109-1.807s-.045-1.127-.062-1.624c-.017-.496-.028-.928-.036-1.294-.009-.366-.005-.647.012-.842,0-.146.094-.354.281-.623.187-.269.406-.541.659-.818.252-.276.513-.529.781-.757.269-.228.483-.382.646-.464.374-.179.74-.22,1.099-.122s.684.265.977.5c.293.236.545.488.757.757s.358.484.439.647Z"/>
        <path class="st4" d="M83.864,7.547c.113.098.224.285.329.562.105.277.199.61.281,1.001.081.391.154.814.22,1.27.064.456.122.903.171,1.343s.085.851.109,1.233c.024.383.045.696.062.94.016.293.028.598.036.916s.008.619,0,.903c-.008.285-.024.542-.049.769-.024.228-.061.399-.109.513-.098.244-.265.411-.501.5-.236.09-.5.151-.793.183-.146.017-.396.021-.745.012-.35-.008-.725-.024-1.123-.049s-.777-.053-1.135-.085c-.358-.032-.627-.065-.806-.098-.358-.081-.615-.187-.77-.317-.154-.13-.305-.317-.451-.562-.049-.098-.09-.346-.122-.745-.033-.398-.054-.879-.062-1.44s-.004-1.167.013-1.819c.016-.651.044-1.27.085-1.855s.09-1.099.146-1.538.135-.732.232-.879c.162-.228.443-.439.842-.635s.761-.35,1.087-.464c.162-.049.378-.085.646-.11s.554-.024.854,0,.59.073.867.146c.276.073.504.175.684.305ZM82.497,15.116c.032-.065.068-.264.109-.598.041-.333.073-.736.098-1.208.024-.472.041-.977.049-1.514s.013-1.033.013-1.489-.017-.842-.049-1.16c-.033-.317-.073-.5-.122-.549-.082-.065-.2-.093-.354-.085-.154.008-.313.033-.476.073-.163.041-.31.09-.439.146-.131.057-.22.11-.269.159-.212.179-.326.472-.342.879,0,.114-.013.436-.037.964-.024.529-.036,1.099-.036,1.709s.012,1.176.036,1.697c.024.521.077.838.159.952.081.114.199.2.354.256.154.057.317.085.488.085s.334-.028.488-.085c.154-.057.265-.134.33-.232Z"/>
        <path class="st4" d="M92.101,7.596c.13.082.256.24.378.476.122.236.236.505.342.806.105.301.195.623.269.964s.139.659.195.952.094.542.11.745c.016.204.016.33,0,.378-.033.065-.131.13-.293.195-.146.065-.366.139-.659.22-.293.082-.7.171-1.221.269-.033-.895-.098-1.575-.195-2.039s-.204-.793-.317-.989c-.131-.228-.269-.342-.415-.342-.146.065-.277.143-.391.232-.114.09-.212.183-.293.281-.098.114-.188.236-.269.366-.033.049-.065.163-.098.342-.033.179-.065.448-.098.806,0,.114-.005.35-.013.708-.008.358-.017.773-.024,1.245-.008.472-.017.969-.024,1.489-.008.521-.017,1.005-.024,1.453-.008.448-.017.826-.024,1.135-.008.31-.021.488-.036.537-.033.082-.114.195-.244.342-.131.146-.277.281-.439.403-.163.122-.317.22-.464.293s-.244.069-.293-.012c-.049-.049-.098-.26-.146-.635-.049-.374-.103-.834-.159-1.379-.057-.545-.118-1.143-.183-1.794-.065-.651-.122-1.277-.171-1.88-.049-.602-.09-1.143-.122-1.624-.033-.48-.058-.826-.073-1.038-.017-.309-.033-.651-.049-1.025-.017-.374-.029-.728-.037-1.062-.008-.333-.008-.626,0-.879.008-.252.037-.403.086-.452.032-.049.142-.061.329-.037s.391.073.61.146.428.167.623.281c.195.114.325.22.391.317.049.082.098.204.146.366.309-.163.605-.313.891-.452.285-.138.562-.24.83-.305.269-.065.533-.085.794-.061.26.024.521.11.781.256Z"/>
      </g>
      <g>
        <path class="st0" d="M144.491,47.623c1.874-.029,5.394-2.628,6.258-4.673.661.129,2.611.492,4.824.723h.009c.017.003.034.005.052.006h.013c.018.003.036.005.054.007h.006c.021.003.042.005.063.007h.006c.033.004.066.007.1.01h.008c.013.002.027.003.04.005h.01c.015.002.03.004.046.005h.014c.031.004.062.007.093.01h.015s.037.005.037.005h.01c.016.002.031.004.047.005h.013s.026.003.026.003c.029.003.058.005.087.008l.022.002c.015.001.029.003.044.004h.013s.031.004.031.004h.006c.093.008.187.016.28.023h.001c1.988.153,4.043.157,5.477-.232h0c.026-.007.051-.014.076-.021h0c.016-.005.032-.009.048-.014h.003c.024-.008.048-.015.071-.023h.003s.023-.008.023-.008l.005-.002c.013-.004.026-.008.038-.012l.009-.003.02-.007.006-.002c.012-.004.024-.008.036-.012l.011-.004.018-.006.011-.004c.01-.004.02-.007.031-.011l.012-.004.017-.006.011-.004c.01-.004.02-.008.031-.011l.012-.004.017-.006.023-.009.016-.006.013-.005.016-.006.024-.01.013-.006.016-.007.013-.006.023-.01.015-.006.015-.007.015-.007.021-.01.014-.006.016-.007.012-.005.024-.011.01-.005.02-.01.008-.004.023-.012.009-.005.021-.011.008-.004.022-.012.01-.005.02-.011.009-.005.019-.011.01-.006.022-.013.007-.004.019-.011.009-.005.023-.014.005-.003.02-.013.007-.004c.008-.005.016-.01.024-.015l.003-.002.021-.014.005-.004c.008-.005.015-.01.023-.016l.005-.003.019-.014.005-.004c.007-.005.015-.011.022-.016l.005-.003.019-.015.004-.003c.007-.006.015-.011.022-.017l.004-.003.019-.015.004-.004c.007-.006.014-.012.021-.017l.004-.003.02-.017.002-.002c.007-.006.014-.012.021-.018l.004-.004.019-.017h.001c.007-.007.013-.014.02-.02l.004-.004.019-.018h0c.007-.007.013-.013.019-.02l.004-.004.018-.019h0s.018-.02.018-.02l.003-.004.018-.02c.729-.821.889-2.756.547-5.155l-.003-.023c-.003-.022-.006-.044-.01-.066-.002-.012-.004-.024-.005-.036-.003-.017-.005-.034-.008-.051-.003-.017-.005-.034-.008-.051-.002-.012-.004-.025-.006-.037-.002-.015-.005-.03-.007-.045-.002-.015-.005-.031-.007-.046-.002-.012-.004-.025-.006-.037-.003-.017-.006-.034-.008-.051-.002-.014-.005-.027-.007-.041-.003-.015-.005-.031-.008-.046-.003-.015-.005-.03-.008-.045-.002-.014-.005-.029-.007-.043-.003-.015-.005-.03-.008-.045-.002-.014-.005-.028-.007-.042-.003-.015-.005-.031-.008-.046-.003-.014-.005-.029-.008-.043-.003-.014-.005-.029-.008-.043-.003-.015-.006-.03-.008-.045-.003-.014-.005-.027-.008-.041-.003-.016-.006-.031-.009-.047-.003-.014-.005-.028-.008-.041-.003-.015-.006-.03-.009-.045-.003-.015-.006-.029-.009-.044-.003-.015-.006-.029-.009-.044-.003-.014-.006-.029-.009-.043-.003-.015-.006-.03-.009-.044-.003-.014-.006-.028-.009-.042-.003-.015-.006-.03-.009-.045-.003-.015-.006-.029-.009-.044-.003-.014-.006-.028-.009-.042-.003-.015-.006-.03-.01-.045-.003-.014-.006-.028-.009-.043-.003-.015-.006-.03-.01-.044-.003-.014-.006-.027-.009-.041-.003-.015-.007-.03-.01-.045-.003-.013-.006-.027-.009-.04-.004-.016-.007-.032-.011-.047-.003-.011-.005-.022-.008-.033-.004-.018-.008-.035-.012-.053-.003-.012-.006-.023-.008-.035-.016-.066-.031-.132-.048-.197l-.006-.022c-.005-.019-.009-.037-.014-.056-.003-.01-.005-.02-.007-.03-.004-.016-.008-.033-.012-.049-.003-.013-.006-.025-.01-.038-.004-.016-.008-.032-.013-.049-.003-.012-.006-.024-.009-.035-.004-.017-.009-.034-.013-.051-.003-.012-.006-.023-.009-.035-.004-.017-.009-.033-.013-.05-.003-.012-.006-.023-.009-.035-.005-.017-.009-.034-.014-.051-.003-.011-.006-.022-.009-.033-.005-.018-.01-.035-.015-.053-.003-.011-.006-.022-.009-.032-.005-.017-.009-.033-.014-.05-.003-.012-.007-.024-.01-.035-.005-.017-.01-.034-.015-.051-.003-.011-.006-.022-.009-.033-.005-.017-.01-.034-.015-.05-.003-.011-.007-.022-.01-.034-.005-.017-.01-.035-.015-.052-.003-.01-.006-.02-.009-.031-.005-.017-.01-.034-.015-.052-.003-.012-.007-.023-.01-.035-.005-.016-.01-.033-.015-.049-.003-.011-.007-.022-.01-.033-.005-.017-.011-.035-.016-.052l-.008-.027c-.006-.02-.012-.039-.018-.059l-.006-.019c-.007-.021-.013-.043-.02-.064l-.006-.02c-.007-.021-.014-.042-.02-.064l-.004-.013c-.007-.023-.015-.046-.023-.069-.015-.046-.03-.092-.046-.138-.039-.114-.078-.228-.119-.342l-.004-.01c-.009-.024-.017-.048-.026-.072l-.003-.009c-.008-.023-.016-.045-.025-.068l-.005-.015c-.008-.022-.016-.044-.024-.066l-.006-.015c-.008-.022-.017-.045-.025-.067l-.005-.013c-.008-.023-.017-.045-.026-.068l-.005-.013c-.008-.022-.017-.045-.026-.067l-.005-.014c-.009-.022-.017-.044-.026-.066l-.006-.014c-.009-.022-.017-.044-.026-.067l-.005-.013c-.009-.022-.018-.045-.027-.067l-.006-.014c-.009-.022-.018-.045-.027-.067l-.004-.01c-.009-.023-.019-.047-.028-.07l-.004-.009c-.01-.024-.019-.047-.029-.071l-.003-.007c-.01-.025-.02-.049-.031-.074h0c-.016-.039-.032-.077-.048-.115l-.004-.009c-.016-.037-.032-.074-.047-.11l-.004-.01c-.016-.036-.032-.073-.048-.109l-.005-.011c-.016-.036-.032-.072-.048-.107l-.006-.012c-.016-.036-.032-.072-.049-.108l-.004-.01c-.017-.036-.033-.073-.05-.109l-.004-.009c-.017-.037-.035-.075-.052-.112h0c-.074-.157-.149-.312-.226-.466h0c-.019-.039-.038-.077-.058-.115v-.002c-.02-.038-.04-.076-.06-.114h0c-2.441-4.71-6.647-8.401-11.835-10.134-2.298-.768-4.231-.958-5.169-.388-2.601,1.58-2.567,11.256-2.545,12.763-2.186.418-5.479,3.515-5.647,5.36-.265,2.929,4.594,9.082,7.535,9.036Z"/>
        <path class="st2" d="M164.244,37.451c-.003-.017-.005-.034-.008-.051-.003-.017-.005-.034-.008-.051-.002-.012-.004-.025-.006-.037-.002-.015-.005-.03-.007-.045-.002-.015-.005-.031-.007-.046-.002-.012-.004-.025-.006-.037-.003-.017-.006-.034-.008-.051-.002-.014-.005-.027-.007-.041-.003-.015-.005-.031-.008-.046-.003-.015-.005-.03-.008-.045-.002-.014-.005-.029-.007-.043-.003-.015-.005-.03-.008-.045-.002-.014-.005-.028-.007-.042-.003-.015-.005-.031-.008-.046-.003-.014-.005-.029-.008-.043-.003-.014-.005-.029-.008-.043-.003-.015-.006-.03-.008-.045-.003-.014-.005-.027-.008-.041-.003-.016-.006-.031-.009-.047-.003-.014-.005-.028-.008-.041-.003-.015-.006-.03-.009-.045-.003-.015-.006-.029-.009-.044-.003-.015-.006-.029-.009-.044-.003-.014-.006-.029-.009-.043-.003-.015-.006-.03-.009-.044-.003-.014-.006-.028-.009-.042-.003-.015-.006-.03-.009-.045-.003-.015-.006-.029-.009-.044-.003-.014-.006-.028-.009-.042-.003-.015-.006-.03-.01-.045-.003-.014-.006-.028-.009-.043-.003-.015-.006-.03-.01-.044-.003-.014-.006-.027-.009-.041-.003-.015-.007-.03-.01-.045-.003-.013-.006-.027-.009-.04-.004-.016-.007-.032-.011-.047-.003-.011-.005-.022-.008-.033-.004-.018-.008-.035-.012-.053-.003-.012-.006-.023-.008-.035-.016-.066-.031-.132-.048-.197l-.006-.022c-.005-.019-.009-.037-.014-.056-.003-.01-.005-.02-.007-.03-.004-.016-.008-.033-.012-.049-.003-.013-.006-.025-.01-.038-.004-.016-.008-.032-.013-.049-.003-.012-.006-.024-.009-.035-.004-.017-.009-.034-.013-.051-.003-.012-.006-.023-.009-.035-.004-.017-.009-.033-.013-.05-.003-.012-.006-.023-.009-.035-.005-.017-.009-.034-.014-.051-.003-.011-.006-.022-.009-.033-.005-.018-.01-.035-.015-.053-.003-.011-.006-.022-.009-.032-.005-.017-.009-.033-.014-.05-.003-.012-.007-.024-.01-.035-.005-.017-.01-.034-.015-.051-.003-.011-.006-.022-.009-.033-.005-.017-.01-.034-.015-.05-.003-.011-.007-.022-.01-.034-.005-.017-.01-.035-.015-.052-.003-.01-.006-.02-.009-.031-.005-.017-.01-.034-.015-.052-.003-.012-.007-.023-.01-.035-.005-.016-.01-.033-.015-.049-.003-.011-.007-.022-.01-.033-.005-.017-.011-.035-.016-.052l-.008-.027c-.006-.02-.012-.039-.018-.059l-.006-.019c-.007-.021-.013-.043-.02-.064l-.006-.02c-.007-.021-.014-.042-.02-.064l-.004-.013c-.06-.184-.122-.367-.187-.549l-.004-.01c-.009-.024-.017-.048-.026-.072l-.003-.009c-.008-.023-.016-.045-.025-.068l-.005-.015c-.008-.022-.016-.044-.024-.066l-.006-.015c-.008-.022-.017-.045-.025-.067l-.005-.013c-.008-.023-.017-.045-.026-.068l-.005-.013c-.008-.022-.017-.045-.026-.067l-.005-.014c-.009-.022-.017-.044-.026-.066l-.006-.014c-.009-.022-.017-.044-.026-.067l-.005-.013c-.009-.022-.018-.045-.027-.067l-.006-.014c-.009-.022-.018-.045-.027-.067l-.004-.01c-.009-.023-.019-.047-.028-.07l-.004-.009c-.01-.024-.019-.047-.029-.071l-.003-.007c-.01-.025-.02-.049-.031-.074h0c-2.144-5.118-6.289-9.237-11.554-11.301.204.787.415,1.573.622,2.361,2.256,1.259,4.303,2.955,6.015,4.998,2.362,2.819,3.971,6.164,4.655,9.675.419,2.153.118,4.243-.749,5.201-.008.009-.017.017-.026.025-.094.079-.235.078-.329-.007-.103-.093-.111-.251-.018-.354.617-.682,1.077-2.465.628-4.769-1.136-5.83-4.929-11.077-9.999-14.084.742,2.869,1.395,5.782,1.449,8.918.092,3.493-.466,6.817-1.428,10.024.958.161,2.253.354,3.636.493h.006c.033.004.066.007.1.01h.008c.013.002.027.003.04.005h.01c.015.002.03.004.046.005h.014c.031.004.062.007.093.01h.015s.037.005.037.005h.01c.016.002.031.004.047.005h.013s.026.003.026.003c.029.003.058.005.087.008l.022.002c.015.001.029.003.044.004h.013s.031.004.031.004h.006c.093.008.187.016.28.023h.001c1.988.153,4.043.157,5.477-.232h0c.026-.007.051-.014.076-.021h0c.016-.005.032-.009.048-.014h.003c.024-.008.048-.015.071-.023h.003s.023-.008.023-.008l.005-.002c.013-.004.026-.008.038-.012l.009-.003.02-.007.006-.002c.012-.004.024-.008.036-.012l.011-.004.018-.006.011-.004c.01-.004.02-.007.031-.011l.012-.004.017-.006.011-.004c.01-.004.02-.008.031-.011l.012-.004.017-.006.023-.009.016-.006.013-.005.016-.006.024-.01.013-.006.016-.007.013-.006.023-.01.015-.006.015-.007.015-.007.021-.01.014-.006.016-.007.012-.005.024-.011.01-.005.02-.01.008-.004.023-.012.009-.005.021-.011.008-.004.022-.012.01-.005.02-.011.009-.005.019-.011.01-.006.022-.013.007-.004.019-.011.009-.005.023-.014.005-.003.02-.013.007-.004c.008-.005.016-.01.024-.015l.003-.002.021-.014.005-.004c.008-.005.015-.01.023-.016l.005-.003.019-.014.005-.004c.007-.005.015-.011.022-.016l.005-.003.019-.015.004-.003c.007-.006.015-.011.022-.017l.004-.003.019-.015.004-.004c.007-.006.014-.012.021-.017l.004-.003.02-.017.002-.002c.007-.006.014-.012.021-.018l.004-.004.019-.017h.001c.007-.007.013-.014.02-.02l.004-.004.019-.018h0c.007-.007.013-.013.019-.02l.004-.004.018-.019h0s.018-.02.018-.02l.003-.004.018-.02c.729-.821.889-2.756.547-5.155l-.003-.023c-.003-.022-.006-.044-.01-.066-.002-.012-.004-.024-.006-.037Z"/>
        <path class="st2" d="M162.152,25.34c.967,1.181,1.582,2.649,1.779,4.161.1.771.166,1.616.717,2.218.439.479,1.175.69,1.794.472.589-.208.969-.724.978-1.345.001-.096.018-2.371-1.174-4.944-.8-1.727-1.996-3.258-3.49-4.438-.984-.776-2.085-1.395-3.247-1.862-.794-.319-1.744-.768-2.622-.6-1.165.222-1.39,1.762-.728,2.565.682.828,2.274,1.109,3.375,1.678,1.001.517,1.903,1.221,2.618,2.094Z"/>
        <path class="st2" d="M160.622,13.934c-.72-.253-1.602-.643-2.379-.606-.768.037-1.348.624-1.419,1.382-.051.535.137,1.101.514,1.554.299.358.697.617,1.122.729,4.643,1.221,7.905,3.767,9.695,7.568.598,1.27,1.005,2.632,1.222,4.019.218,1.397.076,3.139,1.763,3.637,1.013.299,1.997-.399,2.011-1.466.002-.14.025-3.464-1.727-7.246-1.719-3.711-4.678-6.697-8.33-8.526-.8-.401-1.627-.747-2.471-1.044Z"/>
        <path class="st3" d="M144.107,22.166c-.118.074-.154.227-.081.345.073.118.227.154.345.081.8-.496,2.596-.614,4.805.239,1.016.392,1.998.872,2.936,1.428,5.07,3.007,8.863,8.253,9.999,14.084.449,2.304-.011,4.087-.628,4.769-.093.103-.085.261.018.354.094.085.234.086.329.007.009-.007.018-.016.026-.025.867-.958,1.168-3.048.749-5.201-.684-3.511-2.294-6.856-4.655-9.675-1.712-2.043-3.759-3.739-6.015-4.998-.832-.464-1.693-.869-2.576-1.21-2.084-.805-4.145-.882-5.25-.198Z"/>
        <path class="st3" d="M150.129,42.445c.086-.072.116-.195.065-.301-2.373-4.953-6.854-8.24-6.899-8.273-.112-.081-.269-.056-.35.056-.081.112-.056.269.056.35.044.032,4.424,3.248,6.741,8.084.06.125.21.178.334.118.019-.009.037-.021.052-.034Z"/>
      </g>
    </g>
  </g>
</svg>